<?xml version="1.0" encoding="UTF-8"?>
<svg width="130px" height="130px" viewBox="0 0 130 130" version="1.1" xmlns="http://www.w3.org/2000/svg" xmlns:xlink="http://www.w3.org/1999/xlink">
    <!-- Generator: Sketch 52.5 (67469) - http://www.bohemiancoding.com/sketch -->
    <title>process</title>
    <desc>Created with Sketch.</desc>
    <g id="Case-studies" stroke="none" stroke-width="1" fill="none" fill-rule="evenodd">
        <g id="Project:-Ticketmaster" transform="translate(-895.000000, -4739.000000)">
            <g id="Group-2" transform="translate(924.000000, 4767.000000)">
                <g id="Group-Copy-2" fill="#52DBDB">
                    <path d="M0.121519179,39.5 L10.1679353,39.5 C11.5656258,51.9046289 21.5269783,61.7164997 34,62.8836198 L34,72.9157268 C16.0007316,71.6982004 1.5803391,57.4320592 0.121519179,39.5 Z M62.8320647,39.5 L72.8784808,39.5 C71.4196609,57.4320592 56.9992684,71.6982004 39,72.9157268 L39,62.8836198 C51.4730217,61.7164997 61.4343742,51.9046289 62.8320647,39.5 Z M62.9256613,34.5 C61.9650245,21.626 51.8063695,11.3146921 39,10.1163802 L39,0.0842731938 C57.3326089,1.32434775 71.9525553,16.1008247 72.9461352,34.5 L62.9256613,34.5 Z" id="Combined-Shape"></path>
                </g>
                <g id="Group-Copy" fill="#E1E1E1">
                    <path d="M10.0743387,34.5 L0.0538647877,34.5 C1.04744467,16.1008247 15.6673911,1.32434775 34,0.0842731938 L34,10.1163802 C21.1936305,11.3146921 11.0349755,21.626 10.0743387,34.5 Z" id="Combined-Shape"></path>
                </g>
            </g>
        </g>
    </g>
</svg>