<?xml version="1.0" encoding="UTF-8"?>
<svg width="299px" height="760px" viewBox="0 0 299 760" version="1.1" xmlns="http://www.w3.org/2000/svg" xmlns:xlink="http://www.w3.org/1999/xlink">
    <!-- Generator: Sketch 52.5 (67469) - http://www.bohemiancoding.com/sketch -->
    <title>Group</title>
    <desc>Created with Sketch.</desc>
    <g id="Visual-playground" stroke="none" stroke-width="1" fill="none" fill-rule="evenodd">
        <g id="Home-Full-HD-Copy" transform="translate(-211.000000, -980.000000)">
            <g id="Group" transform="translate(211.000000, 977.000000)">
                <path d="M179.498945,265.666667 L298,265.666667" id="Line-2" stroke="#BEBEBE" stroke-linecap="square" transform="translate(238.500000, 317.000000) rotate(-180.000000) translate(-238.500000, -317.000000) "></path>
                <rect id="Rectangle-Copy-738" fill="#47D8D8" transform="translate(289.000000, 707.000000) rotate(-180.000000) translate(-289.000000, -707.000000) " x="279" y="697" width="20" height="20"></rect>
                <rect id="Rectangle-Copy-739" fill="#47D8D8" transform="translate(289.000000, 684.000000) rotate(-180.000000) translate(-289.000000, -684.000000) " x="279" y="674" width="20" height="20"></rect>
                <rect id="Rectangle-Copy-740" fill="#47D8D8" transform="translate(289.000000, 661.000000) rotate(-180.000000) translate(-289.000000, -661.000000) " x="279" y="651" width="20" height="20"></rect>
                <rect id="Rectangle-Copy-741" fill="#47D8D8" transform="translate(289.000000, 638.000000) rotate(-180.000000) translate(-289.000000, -638.000000) " x="279" y="628" width="20" height="20"></rect>
                <rect id="Rectangle-Copy-742" fill="#47D8D8" transform="translate(289.000000, 615.000000) rotate(-180.000000) translate(-289.000000, -615.000000) " x="279" y="605" width="20" height="20"></rect>
                <rect id="Rectangle-Copy-743" fill="#47D8D8" transform="translate(289.000000, 592.000000) rotate(-180.000000) translate(-289.000000, -592.000000) " x="279" y="582" width="20" height="20"></rect>
                <rect id="Rectangle-Copy-744" fill="#47D8D8" transform="translate(289.000000, 569.000000) rotate(-180.000000) translate(-289.000000, -569.000000) " x="279" y="559" width="20" height="20"></rect>
                <rect id="Rectangle-Copy-745" fill="#47D8D8" transform="translate(289.000000, 546.000000) rotate(-180.000000) translate(-289.000000, -546.000000) " x="279" y="536" width="20" height="20"></rect>
                <rect id="Rectangle-Copy-746" fill="#47D8D8" transform="translate(289.000000, 523.000000) rotate(-180.000000) translate(-289.000000, -523.000000) " x="279" y="513" width="20" height="20"></rect>
                <rect id="Rectangle-Copy-747" fill="#47D8D8" transform="translate(289.000000, 500.000000) rotate(-180.000000) translate(-289.000000, -500.000000) " x="279" y="490" width="20" height="20"></rect>
                <rect id="Rectangle-Copy-748" fill="#47D8D8" transform="translate(289.000000, 477.000000) rotate(-180.000000) translate(-289.000000, -477.000000) " x="279" y="467" width="20" height="20"></rect>
                <rect id="Rectangle-Copy-749" fill="#47D8D8" transform="translate(289.000000, 454.000000) rotate(-180.000000) translate(-289.000000, -454.000000) " x="279" y="444" width="20" height="20"></rect>
                <rect id="Rectangle-Copy-750" fill="#47D8D8" transform="translate(289.000000, 431.000000) rotate(-180.000000) translate(-289.000000, -431.000000) " x="279" y="421" width="20" height="20"></rect>
                <rect id="Rectangle-Copy-751" fill="#47D8D8" transform="translate(289.000000, 408.000000) rotate(-180.000000) translate(-289.000000, -408.000000) " x="279" y="398" width="20" height="20"></rect>
                <rect id="Rectangle-Copy-752" fill="#47D8D8" transform="translate(289.000000, 385.000000) rotate(-180.000000) translate(-289.000000, -385.000000) " x="279" y="375" width="20" height="20"></rect>
                <rect id="Rectangle-Copy-753" fill="#2B507D" transform="translate(289.000000, 362.000000) rotate(-180.000000) translate(-289.000000, -362.000000) " x="279" y="352" width="20" height="20"></rect>
                <rect id="Rectangle-Copy-754" fill="#2B507D" transform="translate(289.000000, 339.000000) rotate(-180.000000) translate(-289.000000, -339.000000) " x="279" y="329" width="20" height="20"></rect>
                <rect id="Rectangle-Copy-755" fill="#2B507D" transform="translate(289.000000, 316.000000) rotate(-180.000000) translate(-289.000000, -316.000000) " x="279" y="306" width="20" height="20"></rect>
                <rect id="Rectangle-Copy-756" fill="#2B507D" transform="translate(289.000000, 293.000000) rotate(-180.000000) translate(-289.000000, -293.000000) " x="279" y="283" width="20" height="20"></rect>
                <rect id="Rectangle-Copy-757" fill="#2B507D" transform="translate(289.000000, 270.000000) rotate(-180.000000) translate(-289.000000, -270.000000) " x="279" y="260" width="20" height="20"></rect>
                <rect id="Rectangle-Copy-758" fill="#2B507D" transform="translate(289.000000, 247.000000) rotate(-180.000000) translate(-289.000000, -247.000000) " x="279" y="237" width="20" height="20"></rect>
                <rect id="Rectangle-Copy-759" fill="#2B507D" transform="translate(289.000000, 224.000000) rotate(-180.000000) translate(-289.000000, -224.000000) " x="279" y="214" width="20" height="20"></rect>
                <rect id="Rectangle-Copy-760" fill="#2B507D" transform="translate(289.000000, 201.000000) rotate(-180.000000) translate(-289.000000, -201.000000) " x="279" y="191" width="20" height="20"></rect>
                <rect id="Rectangle-Copy-761" fill="#2B507D" transform="translate(289.000000, 178.000000) rotate(-180.000000) translate(-289.000000, -178.000000) " x="279" y="168" width="20" height="20"></rect>
                <rect id="Rectangle-Copy-762" fill="#2B507D" transform="translate(289.000000, 155.000000) rotate(-180.000000) translate(-289.000000, -155.000000) " x="279" y="145" width="20" height="20"></rect>
                <rect id="Rectangle-Copy-763" fill="#2B507D" transform="translate(289.000000, 132.000000) rotate(-180.000000) translate(-289.000000, -132.000000) " x="279" y="122" width="20" height="20"></rect>
                <rect id="Rectangle-Copy-934" fill="#EDEDED" transform="translate(164.000000, 155.000000) rotate(-180.000000) translate(-164.000000, -155.000000) " x="162" y="145" width="4" height="20"></rect>
                <rect id="Rectangle-Copy-940" fill="#EDEDED" transform="translate(164.000000, 385.000000) rotate(-180.000000) translate(-164.000000, -385.000000) " x="162" y="375" width="4" height="20"></rect>
                <rect id="Rectangle-Copy-950" fill="#D7D7D7" transform="translate(164.000000, 615.000000) rotate(-180.000000) translate(-164.000000, -615.000000) " x="162" y="605" width="4" height="20"></rect>
                <rect id="Rectangle-Copy-935" fill="#D7D7D7" transform="translate(164.000000, 270.000000) rotate(-180.000000) translate(-164.000000, -270.000000) " x="162" y="260" width="4" height="20"></rect>
                <rect id="Rectangle-Copy-941" fill="#EDEDED" transform="translate(164.000000, 500.000000) rotate(-180.000000) translate(-164.000000, -500.000000) " x="162" y="490" width="4" height="20"></rect>
                <rect id="Rectangle-Copy-951" fill="#EDEDED" transform="translate(164.000000, 730.000000) rotate(-180.000000) translate(-164.000000, -730.000000) " x="162" y="720" width="4" height="20"></rect>
                <rect id="Rectangle-Copy-960" fill="#D7D7D7" transform="translate(164.000000, 753.000000) rotate(-180.000000) translate(-164.000000, -753.000000) " x="162" y="743" width="4" height="20"></rect>
                <rect id="Rectangle-Copy-961" fill="#EDEDED" transform="translate(164.000000, 40.000000) rotate(-180.000000) translate(-164.000000, -40.000000) " x="162" y="30" width="4" height="20"></rect>
                <rect id="Rectangle-Copy-764" fill="#2B507D" transform="translate(289.000000, 109.000000) rotate(-180.000000) translate(-289.000000, -109.000000) " x="279" y="99" width="20" height="20"></rect>
                <rect id="Rectangle-Copy-930" fill="#D7D7D7" transform="translate(164.000000, 132.000000) rotate(-180.000000) translate(-164.000000, -132.000000) " x="162" y="122" width="4" height="20"></rect>
                <rect id="Rectangle-Copy-942" fill="#EDEDED" transform="translate(164.000000, 362.000000) rotate(-180.000000) translate(-164.000000, -362.000000) " x="162" y="352" width="4" height="20"></rect>
                <rect id="Rectangle-Copy-952" fill="#EDEDED" transform="translate(164.000000, 592.000000) rotate(-180.000000) translate(-164.000000, -592.000000) " x="162" y="582" width="4" height="20"></rect>
                <rect id="Rectangle-Copy-936" fill="#EDEDED" transform="translate(164.000000, 247.000000) rotate(-180.000000) translate(-164.000000, -247.000000) " x="162" y="237" width="4" height="20"></rect>
                <rect id="Rectangle-Copy-943" fill="#D7D7D7" transform="translate(164.000000, 477.000000) rotate(-180.000000) translate(-164.000000, -477.000000) " x="162" y="467" width="4" height="20"></rect>
                <rect id="Rectangle-Copy-953" fill="#EDEDED" transform="translate(164.000000, 707.000000) rotate(-180.000000) translate(-164.000000, -707.000000) " x="162" y="697" width="4" height="20"></rect>
                <rect id="Rectangle-Copy-765" fill="#4AADE2" transform="translate(289.000000, 86.000000) rotate(-180.000000) translate(-289.000000, -86.000000) " x="279" y="76" width="20" height="20"></rect>
                <rect id="Rectangle-Copy-931" fill="#EDEDED" transform="translate(164.000000, 109.000000) rotate(-180.000000) translate(-164.000000, -109.000000) " x="162" y="99" width="4" height="20"></rect>
                <rect id="Rectangle-Copy-944" fill="#D7D7D7" transform="translate(164.000000, 339.000000) rotate(-180.000000) translate(-164.000000, -339.000000) " x="162" y="329" width="4" height="20"></rect>
                <rect id="Rectangle-Copy-954" fill="#EDEDED" transform="translate(164.000000, 569.000000) rotate(-180.000000) translate(-164.000000, -569.000000) " x="162" y="559" width="4" height="20"></rect>
                <rect id="Rectangle-Copy-937" fill="#EDEDED" transform="translate(164.000000, 224.000000) rotate(-180.000000) translate(-164.000000, -224.000000) " x="162" y="214" width="4" height="20"></rect>
                <rect id="Rectangle-Copy-945" fill="#EDEDED" transform="translate(164.000000, 454.000000) rotate(-180.000000) translate(-164.000000, -454.000000) " x="162" y="444" width="4" height="20"></rect>
                <rect id="Rectangle-Copy-955" fill="#D7D7D7" transform="translate(164.000000, 684.000000) rotate(-180.000000) translate(-164.000000, -684.000000) " x="162" y="674" width="4" height="20"></rect>
                <rect id="Rectangle-Copy-766" fill="#4AADE2" transform="translate(289.000000, 63.000000) rotate(-180.000000) translate(-289.000000, -63.000000) " x="279" y="53" width="20" height="20"></rect>
                <rect id="Rectangle-Copy-932" fill="#EDEDED" transform="translate(164.000000, 86.000000) rotate(-180.000000) translate(-164.000000, -86.000000) " x="162" y="76" width="4" height="20"></rect>
                <rect id="Rectangle-Copy-946" fill="#EDEDED" transform="translate(164.000000, 316.000000) rotate(-180.000000) translate(-164.000000, -316.000000) " x="162" y="306" width="4" height="20"></rect>
                <rect id="Rectangle-Copy-956" fill="#D7D7D7" transform="translate(164.000000, 546.000000) rotate(-180.000000) translate(-164.000000, -546.000000) " x="162" y="536" width="4" height="20"></rect>
                <rect id="Rectangle-Copy-938" fill="#D7D7D7" transform="translate(164.000000, 201.000000) rotate(-180.000000) translate(-164.000000, -201.000000) " x="162" y="191" width="4" height="20"></rect>
                <rect id="Rectangle-Copy-947" fill="#EDEDED" transform="translate(164.000000, 431.000000) rotate(-180.000000) translate(-164.000000, -431.000000) " x="162" y="421" width="4" height="20"></rect>
                <rect id="Rectangle-Copy-957" fill="#EDEDED" transform="translate(164.000000, 661.000000) rotate(-180.000000) translate(-164.000000, -661.000000) " x="162" y="651" width="4" height="20"></rect>
                <rect id="Rectangle-Copy-767" fill="#4AADE2" transform="translate(289.000000, 40.000000) rotate(-180.000000) translate(-289.000000, -40.000000) " x="279" y="30" width="20" height="20"></rect>
                <rect id="Rectangle-Copy-933" fill="#D7D7D7" transform="translate(164.000000, 63.000000) rotate(-180.000000) translate(-164.000000, -63.000000) " x="162" y="53" width="4" height="20"></rect>
                <rect id="Rectangle-Copy-948" fill="#EDEDED" transform="translate(164.000000, 293.000000) rotate(-180.000000) translate(-164.000000, -293.000000) " x="162" y="283" width="4" height="20"></rect>
                <rect id="Rectangle-Copy-958" fill="#EDEDED" transform="translate(164.000000, 523.000000) rotate(-180.000000) translate(-164.000000, -523.000000) " x="162" y="513" width="4" height="20"></rect>
                <rect id="Rectangle-Copy-939" fill="#EDEDED" transform="translate(164.000000, 178.000000) rotate(-180.000000) translate(-164.000000, -178.000000) " x="162" y="168" width="4" height="20"></rect>
                <rect id="Rectangle-Copy-949" fill="#D7D7D7" transform="translate(164.000000, 408.000000) rotate(-180.000000) translate(-164.000000, -408.000000) " x="162" y="398" width="4" height="20"></rect>
                <rect id="Rectangle-Copy-959" fill="#EDEDED" transform="translate(164.000000, 638.000000) rotate(-180.000000) translate(-164.000000, -638.000000) " x="162" y="628" width="4" height="20"></rect>
                <rect id="Rectangle-Copy-768" fill="#A68AFF" transform="translate(249.000000, 707.000000) rotate(-180.000000) translate(-249.000000, -707.000000) " x="239" y="697" width="20" height="20"></rect>
                <rect id="Rectangle-Copy-769" fill="#A68AFF" transform="translate(209.000000, 707.000000) rotate(-180.000000) translate(-209.000000, -707.000000) " x="199" y="697" width="20" height="20"></rect>
                <rect id="Rectangle-Copy-770" fill="#47D8D8" transform="translate(269.000000, 707.000000) rotate(-180.000000) translate(-269.000000, -707.000000) " x="259" y="697" width="20" height="20"></rect>
                <rect id="Rectangle-Copy-771" fill="#A68AFF" transform="translate(229.000000, 707.000000) rotate(-180.000000) translate(-229.000000, -707.000000) " x="219" y="697" width="20" height="20"></rect>
                <rect id="Rectangle-Copy-772" fill="#A68AFF" transform="translate(189.000000, 707.000000) rotate(-180.000000) translate(-189.000000, -707.000000) " x="179" y="697" width="20" height="20"></rect>
                <rect id="Rectangle-Copy-773" fill="#47D8D8" transform="translate(289.000000, 730.000000) rotate(-180.000000) translate(-289.000000, -730.000000) " x="279" y="720" width="20" height="20"></rect>
                <rect id="Rectangle-Copy-774" fill="#A68AFF" transform="translate(249.000000, 730.000000) rotate(-180.000000) translate(-249.000000, -730.000000) " x="239" y="720" width="20" height="20"></rect>
                <rect id="Rectangle-Copy-775" fill="#A68AFF" transform="translate(209.000000, 730.000000) rotate(-180.000000) translate(-209.000000, -730.000000) " x="199" y="720" width="20" height="20"></rect>
                <rect id="Rectangle-Copy-776" fill="#47D8D8" transform="translate(269.000000, 730.000000) rotate(-180.000000) translate(-269.000000, -730.000000) " x="259" y="720" width="20" height="20"></rect>
                <rect id="Rectangle-Copy-777" fill="#A68AFF" transform="translate(229.000000, 730.000000) rotate(-180.000000) translate(-229.000000, -730.000000) " x="219" y="720" width="20" height="20"></rect>
                <rect id="Rectangle-Copy-778" fill="#FFCD7A" transform="translate(189.000000, 730.000000) rotate(-180.000000) translate(-189.000000, -730.000000) " x="179" y="720" width="20" height="20"></rect>
                <rect id="Rectangle-Copy-779" fill="#47D8D8" transform="translate(289.000000, 753.000000) rotate(-180.000000) translate(-289.000000, -753.000000) " x="279" y="743" width="20" height="20"></rect>
                <rect id="Rectangle-Copy-780" fill="#A68AFF" transform="translate(249.000000, 753.000000) rotate(-180.000000) translate(-249.000000, -753.000000) " x="239" y="743" width="20" height="20"></rect>
                <rect id="Rectangle-Copy-781" fill="#A68AFF" transform="translate(209.000000, 753.000000) rotate(-180.000000) translate(-209.000000, -753.000000) " x="199" y="743" width="20" height="20"></rect>
                <rect id="Rectangle-Copy-782" fill="#A68AFF" transform="translate(269.000000, 753.000000) rotate(-180.000000) translate(-269.000000, -753.000000) " x="259" y="743" width="20" height="20"></rect>
                <rect id="Rectangle-Copy-783" fill="#A68AFF" transform="translate(229.000000, 753.000000) rotate(-180.000000) translate(-229.000000, -753.000000) " x="219" y="743" width="20" height="20"></rect>
                <rect id="Rectangle-Copy-784" fill="#FFCD7A" transform="translate(189.000000, 753.000000) rotate(-180.000000) translate(-189.000000, -753.000000) " x="179" y="743" width="20" height="20"></rect>
                <rect id="Rectangle-Copy-785" fill="#47D8D8" transform="translate(249.000000, 684.000000) rotate(-180.000000) translate(-249.000000, -684.000000) " x="239" y="674" width="20" height="20"></rect>
                <rect id="Rectangle-Copy-786" fill="#A68AFF" transform="translate(209.000000, 684.000000) rotate(-180.000000) translate(-209.000000, -684.000000) " x="199" y="674" width="20" height="20"></rect>
                <rect id="Rectangle-Copy-787" fill="#47D8D8" transform="translate(269.000000, 684.000000) rotate(-180.000000) translate(-269.000000, -684.000000) " x="259" y="674" width="20" height="20"></rect>
                <rect id="Rectangle-Copy-788" fill="#A68AFF" transform="translate(229.000000, 684.000000) rotate(-180.000000) translate(-229.000000, -684.000000) " x="219" y="674" width="20" height="20"></rect>
                <rect id="Rectangle-Copy-789" fill="#A68AFF" transform="translate(189.000000, 684.000000) rotate(-180.000000) translate(-189.000000, -684.000000) " x="179" y="674" width="20" height="20"></rect>
                <rect id="Rectangle-Copy-790" fill="#47D8D8" transform="translate(249.000000, 661.000000) rotate(-180.000000) translate(-249.000000, -661.000000) " x="239" y="651" width="20" height="20"></rect>
                <rect id="Rectangle-Copy-791" fill="#A68AFF" transform="translate(209.000000, 661.000000) rotate(-180.000000) translate(-209.000000, -661.000000) " x="199" y="651" width="20" height="20"></rect>
                <rect id="Rectangle-Copy-792" fill="#47D8D8" transform="translate(269.000000, 661.000000) rotate(-180.000000) translate(-269.000000, -661.000000) " x="259" y="651" width="20" height="20"></rect>
                <rect id="Rectangle-Copy-793" fill="#47D8D8" transform="translate(229.000000, 661.000000) rotate(-180.000000) translate(-229.000000, -661.000000) " x="219" y="651" width="20" height="20"></rect>
                <rect id="Rectangle-Copy-794" fill="#A68AFF" transform="translate(189.000000, 661.000000) rotate(-180.000000) translate(-189.000000, -661.000000) " x="179" y="651" width="20" height="20"></rect>
                <rect id="Rectangle-Copy-795" fill="#47D8D8" transform="translate(249.000000, 638.000000) rotate(-180.000000) translate(-249.000000, -638.000000) " x="239" y="628" width="20" height="20"></rect>
                <rect id="Rectangle-Copy-796" fill="#2B507D" transform="translate(209.000000, 638.000000) rotate(-180.000000) translate(-209.000000, -638.000000) " x="199" y="628" width="20" height="20"></rect>
                <rect id="Rectangle-Copy-797" fill="#47D8D8" transform="translate(269.000000, 638.000000) rotate(-180.000000) translate(-269.000000, -638.000000) " x="259" y="628" width="20" height="20"></rect>
                <rect id="Rectangle-Copy-798" fill="#47D8D8" transform="translate(229.000000, 638.000000) rotate(-180.000000) translate(-229.000000, -638.000000) " x="219" y="628" width="20" height="20"></rect>
                <rect id="Rectangle-Copy-799" fill="#A68AFF" transform="translate(189.000000, 638.000000) rotate(-180.000000) translate(-189.000000, -638.000000) " x="179" y="628" width="20" height="20"></rect>
                <rect id="Rectangle-Copy-800" fill="#47D8D8" transform="translate(249.000000, 615.000000) rotate(-180.000000) translate(-249.000000, -615.000000) " x="239" y="605" width="20" height="20"></rect>
                <rect id="Rectangle-Copy-801" fill="#2B507D" transform="translate(209.000000, 615.000000) rotate(-180.000000) translate(-209.000000, -615.000000) " x="199" y="605" width="20" height="20"></rect>
                <rect id="Rectangle-Copy-802" fill="#47D8D8" transform="translate(269.000000, 615.000000) rotate(-180.000000) translate(-269.000000, -615.000000) " x="259" y="605" width="20" height="20"></rect>
                <rect id="Rectangle-Copy-803" fill="#47D8D8" transform="translate(229.000000, 615.000000) rotate(-180.000000) translate(-229.000000, -615.000000) " x="219" y="605" width="20" height="20"></rect>
                <rect id="Rectangle-Copy-804" fill="#2B507D" transform="translate(189.000000, 615.000000) rotate(-180.000000) translate(-189.000000, -615.000000) " x="179" y="605" width="20" height="20"></rect>
                <rect id="Rectangle-Copy-805" fill="#47D8D8" transform="translate(249.000000, 592.000000) rotate(-180.000000) translate(-249.000000, -592.000000) " x="239" y="582" width="20" height="20"></rect>
                <rect id="Rectangle-Copy-806" fill="#2B507D" transform="translate(209.000000, 592.000000) rotate(-180.000000) translate(-209.000000, -592.000000) " x="199" y="582" width="20" height="20"></rect>
                <rect id="Rectangle-Copy-807" fill="#47D8D8" transform="translate(269.000000, 592.000000) rotate(-180.000000) translate(-269.000000, -592.000000) " x="259" y="582" width="20" height="20"></rect>
                <rect id="Rectangle-Copy-808" fill="#47D8D8" transform="translate(229.000000, 592.000000) rotate(-180.000000) translate(-229.000000, -592.000000) " x="219" y="582" width="20" height="20"></rect>
                <rect id="Rectangle-Copy-809" fill="#FFCD7A" transform="translate(189.000000, 592.000000) rotate(-180.000000) translate(-189.000000, -592.000000) " x="179" y="582" width="20" height="20"></rect>
                <rect id="Rectangle-Copy-810" fill="#47D8D8" transform="translate(249.000000, 569.000000) rotate(-180.000000) translate(-249.000000, -569.000000) " x="239" y="559" width="20" height="20"></rect>
                <rect id="Rectangle-Copy-811" fill="#2B507D" transform="translate(209.000000, 569.000000) rotate(-180.000000) translate(-209.000000, -569.000000) " x="199" y="559" width="20" height="20"></rect>
                <rect id="Rectangle-Copy-812" fill="#47D8D8" transform="translate(269.000000, 569.000000) rotate(-180.000000) translate(-269.000000, -569.000000) " x="259" y="559" width="20" height="20"></rect>
                <rect id="Rectangle-Copy-813" fill="#2B507D" transform="translate(229.000000, 569.000000) rotate(-180.000000) translate(-229.000000, -569.000000) " x="219" y="559" width="20" height="20"></rect>
                <rect id="Rectangle-Copy-814" fill="#FFCD7A" transform="translate(189.000000, 569.000000) rotate(-180.000000) translate(-189.000000, -569.000000) " x="179" y="559" width="20" height="20"></rect>
                <rect id="Rectangle-Copy-815" fill="#47D8D8" transform="translate(249.000000, 546.000000) rotate(-180.000000) translate(-249.000000, -546.000000) " x="239" y="536" width="20" height="20"></rect>
                <rect id="Rectangle-Copy-816" fill="#2B507D" transform="translate(209.000000, 546.000000) rotate(-180.000000) translate(-209.000000, -546.000000) " x="199" y="536" width="20" height="20"></rect>
                <rect id="Rectangle-Copy-817" fill="#47D8D8" transform="translate(269.000000, 546.000000) rotate(-180.000000) translate(-269.000000, -546.000000) " x="259" y="536" width="20" height="20"></rect>
                <rect id="Rectangle-Copy-818" fill="#47D8D8" transform="translate(229.000000, 546.000000) rotate(-180.000000) translate(-229.000000, -546.000000) " x="219" y="536" width="20" height="20"></rect>
                <rect id="Rectangle-Copy-819" fill="#2B507D" transform="translate(189.000000, 546.000000) rotate(-180.000000) translate(-189.000000, -546.000000) " x="179" y="536" width="20" height="20"></rect>
                <rect id="Rectangle-Copy-820" fill="#47D8D8" transform="translate(249.000000, 523.000000) rotate(-180.000000) translate(-249.000000, -523.000000) " x="239" y="513" width="20" height="20"></rect>
                <rect id="Rectangle-Copy-821" fill="#2B507D" transform="translate(209.000000, 523.000000) rotate(-180.000000) translate(-209.000000, -523.000000) " x="199" y="513" width="20" height="20"></rect>
                <rect id="Rectangle-Copy-822" fill="#47D8D8" transform="translate(269.000000, 523.000000) rotate(-180.000000) translate(-269.000000, -523.000000) " x="259" y="513" width="20" height="20"></rect>
                <rect id="Rectangle-Copy-823" fill="#47D8D8" transform="translate(229.000000, 523.000000) rotate(-180.000000) translate(-229.000000, -523.000000) " x="219" y="513" width="20" height="20"></rect>
                <rect id="Rectangle-Copy-824" fill="#FFCD7A" transform="translate(189.000000, 523.000000) rotate(-180.000000) translate(-189.000000, -523.000000) " x="179" y="513" width="20" height="20"></rect>
                <rect id="Rectangle-Copy-826" fill="#2B507D" transform="translate(209.000000, 500.000000) rotate(-180.000000) translate(-209.000000, -500.000000) " x="199" y="490" width="20" height="20"></rect>
                <rect id="Rectangle-Copy-827" fill="#47D8D8" transform="translate(269.000000, 500.000000) rotate(-180.000000) translate(-269.000000, -500.000000) " x="259" y="490" width="20" height="20"></rect>
                <rect id="Rectangle-Copy-966" fill="#47D8D8" transform="translate(249.000000, 500.000000) rotate(-180.000000) translate(-249.000000, -500.000000) " x="239" y="490" width="20" height="20"></rect>
                <rect id="Rectangle-Copy-828" fill="#2B507D" transform="translate(229.000000, 500.000000) rotate(-180.000000) translate(-229.000000, -500.000000) " x="219" y="490" width="20" height="20"></rect>
                <rect id="Rectangle-Copy-829" fill="#FFCD7A" transform="translate(189.000000, 500.000000) rotate(-180.000000) translate(-189.000000, -500.000000) " x="179" y="490" width="20" height="20"></rect>
                <rect id="Rectangle-Copy-830" fill="#47D8D8" transform="translate(249.000000, 477.000000) rotate(-180.000000) translate(-249.000000, -477.000000) " x="239" y="467" width="20" height="20"></rect>
                <rect id="Rectangle-Copy-831" fill="#FFCD7A" transform="translate(209.000000, 477.000000) rotate(-180.000000) translate(-209.000000, -477.000000) " x="199" y="467" width="20" height="20"></rect>
                <rect id="Rectangle-Copy-832" fill="#47D8D8" transform="translate(269.000000, 477.000000) rotate(-180.000000) translate(-269.000000, -477.000000) " x="259" y="467" width="20" height="20"></rect>
                <rect id="Rectangle-Copy-833" fill="#2B507D" transform="translate(229.000000, 477.000000) rotate(-180.000000) translate(-229.000000, -477.000000) " x="219" y="467" width="20" height="20"></rect>
                <rect id="Rectangle-Copy-834" fill="#FFCD7A" transform="translate(189.000000, 477.000000) rotate(-180.000000) translate(-189.000000, -477.000000) " x="179" y="467" width="20" height="20"></rect>
                <rect id="Rectangle-Copy-835" fill="#2B507D" transform="translate(249.000000, 454.000000) rotate(-180.000000) translate(-249.000000, -454.000000) " x="239" y="444" width="20" height="20"></rect>
                <rect id="Rectangle-Copy-836" fill="#FFCD7A" transform="translate(209.000000, 454.000000) rotate(-180.000000) translate(-209.000000, -454.000000) " x="199" y="444" width="20" height="20"></rect>
                <rect id="Rectangle-Copy-837" fill="#47D8D8" transform="translate(269.000000, 454.000000) rotate(-180.000000) translate(-269.000000, -454.000000) " x="259" y="444" width="20" height="20"></rect>
                <rect id="Rectangle-Copy-962" stroke="#FFFFFF" stroke-width="2" fill="#47D8D8" transform="translate(164.000000, 454.000000) rotate(-180.000000) translate(-164.000000, -454.000000) " x="159" y="449" width="10" height="10"></rect>
                <rect id="Rectangle-Copy-967" stroke="#FFFFFF" stroke-width="2" fill="#A68AFF" transform="translate(164.000000, 707.000000) rotate(-180.000000) translate(-164.000000, -707.000000) " x="159" y="702" width="10" height="10"></rect>
                <rect id="Rectangle-Copy-963" stroke="#FFFFFF" stroke-width="2" fill="#FFCD7A" transform="translate(164.000000, 316.000000) rotate(-180.000000) translate(-164.000000, -316.000000) " x="159" y="311" width="10" height="10"></rect>
                <rect id="Rectangle-Copy-964" stroke="#FFFFFF" stroke-width="2" fill="#2B507D" transform="translate(164.000000, 155.000000) rotate(-180.000000) translate(-164.000000, -155.000000) " x="159" y="150" width="10" height="10"></rect>
                <rect id="Rectangle-Copy-965" stroke="#FFFFFF" stroke-width="2" fill="#4AADE2" transform="translate(164.000000, 40.000000) rotate(-180.000000) translate(-164.000000, -40.000000) " x="159" y="35" width="10" height="10"></rect>
                <rect id="Rectangle-Copy-838" fill="#2B507D" transform="translate(229.000000, 454.000000) rotate(-180.000000) translate(-229.000000, -454.000000) " x="219" y="444" width="20" height="20"></rect>
                <rect id="Rectangle-Copy-839" fill="#FFCD7A" transform="translate(189.000000, 454.000000) rotate(-180.000000) translate(-189.000000, -454.000000) " x="179" y="444" width="20" height="20"></rect>
                <rect id="Rectangle-Copy-840" fill="#2B507D" transform="translate(249.000000, 431.000000) rotate(-180.000000) translate(-249.000000, -431.000000) " x="239" y="421" width="20" height="20"></rect>
                <rect id="Rectangle-Copy-841" fill="#FFCD7A" transform="translate(209.000000, 431.000000) rotate(-180.000000) translate(-209.000000, -431.000000) " x="199" y="421" width="20" height="20"></rect>
                <rect id="Rectangle-Copy-842" fill="#47D8D8" transform="translate(269.000000, 431.000000) rotate(-180.000000) translate(-269.000000, -431.000000) " x="259" y="421" width="20" height="20"></rect>
                <rect id="Rectangle-Copy-843" fill="#2B507D" transform="translate(229.000000, 431.000000) rotate(-180.000000) translate(-229.000000, -431.000000) " x="219" y="421" width="20" height="20"></rect>
                <rect id="Rectangle-Copy-844" fill="#FFCD7A" transform="translate(189.000000, 431.000000) rotate(-180.000000) translate(-189.000000, -431.000000) " x="179" y="421" width="20" height="20"></rect>
                <rect id="Rectangle-Copy-845" fill="#2B507D" transform="translate(249.000000, 408.000000) rotate(-180.000000) translate(-249.000000, -408.000000) " x="239" y="398" width="20" height="20"></rect>
                <rect id="Rectangle-Copy-846" fill="#FFCD7A" transform="translate(209.000000, 408.000000) rotate(-180.000000) translate(-209.000000, -408.000000) " x="199" y="398" width="20" height="20"></rect>
                <rect id="Rectangle-Copy-847" fill="#2B507D" transform="translate(269.000000, 408.000000) rotate(-180.000000) translate(-269.000000, -408.000000) " x="259" y="398" width="20" height="20"></rect>
                <rect id="Rectangle-Copy-848" fill="#2B507D" transform="translate(229.000000, 408.000000) rotate(-180.000000) translate(-229.000000, -408.000000) " x="219" y="398" width="20" height="20"></rect>
                <rect id="Rectangle-Copy-849" fill="#FFCD7A" transform="translate(189.000000, 408.000000) rotate(-180.000000) translate(-189.000000, -408.000000) " x="179" y="398" width="20" height="20"></rect>
                <rect id="Rectangle-Copy-850" fill="#2B507D" transform="translate(249.000000, 385.000000) rotate(-180.000000) translate(-249.000000, -385.000000) " x="239" y="375" width="20" height="20"></rect>
                <rect id="Rectangle-Copy-851" fill="#FFCD7A" transform="translate(209.000000, 385.000000) rotate(-180.000000) translate(-209.000000, -385.000000) " x="199" y="375" width="20" height="20"></rect>
                <rect id="Rectangle-Copy-852" fill="#2B507D" transform="translate(269.000000, 385.000000) rotate(-180.000000) translate(-269.000000, -385.000000) " x="259" y="375" width="20" height="20"></rect>
                <rect id="Rectangle-Copy-853" fill="#2B507D" transform="translate(229.000000, 385.000000) rotate(-180.000000) translate(-229.000000, -385.000000) " x="219" y="375" width="20" height="20"></rect>
                <rect id="Rectangle-Copy-854" fill="#FFCD7A" transform="translate(189.000000, 385.000000) rotate(-180.000000) translate(-189.000000, -385.000000) " x="179" y="375" width="20" height="20"></rect>
                <rect id="Rectangle-Copy-855" fill="#2B507D" transform="translate(249.000000, 362.000000) rotate(-180.000000) translate(-249.000000, -362.000000) " x="239" y="352" width="20" height="20"></rect>
                <rect id="Rectangle-Copy-856" fill="#FFCD7A" transform="translate(209.000000, 362.000000) rotate(-180.000000) translate(-209.000000, -362.000000) " x="199" y="352" width="20" height="20"></rect>
                <rect id="Rectangle-Copy-857" fill="#2B507D" transform="translate(269.000000, 362.000000) rotate(-180.000000) translate(-269.000000, -362.000000) " x="259" y="352" width="20" height="20"></rect>
                <rect id="Rectangle-Copy-858" fill="#FFCD7A" transform="translate(229.000000, 362.000000) rotate(-180.000000) translate(-229.000000, -362.000000) " x="219" y="352" width="20" height="20"></rect>
                <rect id="Rectangle-Copy-859" fill="#FFCD7A" transform="translate(189.000000, 362.000000) rotate(-180.000000) translate(-189.000000, -362.000000) " x="179" y="352" width="20" height="20"></rect>
                <rect id="Rectangle-Copy-860" fill="#FFCD7A" transform="translate(249.000000, 339.000000) rotate(-180.000000) translate(-249.000000, -339.000000) " x="239" y="329" width="20" height="20"></rect>
                <rect id="Rectangle-Copy-861" fill="#FFCD7A" transform="translate(209.000000, 339.000000) rotate(-180.000000) translate(-209.000000, -339.000000) " x="199" y="329" width="20" height="20"></rect>
                <rect id="Rectangle-Copy-862" fill="#2B507D" transform="translate(269.000000, 339.000000) rotate(-180.000000) translate(-269.000000, -339.000000) " x="259" y="329" width="20" height="20"></rect>
                <rect id="Rectangle-Copy-863" fill="#FFCD7A" transform="translate(229.000000, 339.000000) rotate(-180.000000) translate(-229.000000, -339.000000) " x="219" y="329" width="20" height="20"></rect>
                <rect id="Rectangle-Copy-864" fill="#FFCD7A" transform="translate(189.000000, 339.000000) rotate(-180.000000) translate(-189.000000, -339.000000) " x="179" y="329" width="20" height="20"></rect>
                <rect id="Rectangle-Copy-865" fill="#FFCD7A" transform="translate(249.000000, 316.000000) rotate(-180.000000) translate(-249.000000, -316.000000) " x="239" y="306" width="20" height="20"></rect>
                <rect id="Rectangle-Copy-866" fill="#FFCD7A" transform="translate(209.000000, 316.000000) rotate(-180.000000) translate(-209.000000, -316.000000) " x="199" y="306" width="20" height="20"></rect>
                <rect id="Rectangle-Copy-867" fill="#2B507D" transform="translate(269.000000, 316.000000) rotate(-180.000000) translate(-269.000000, -316.000000) " x="259" y="306" width="20" height="20"></rect>
                <rect id="Rectangle-Copy-868" fill="#FFCD7A" transform="translate(229.000000, 316.000000) rotate(-180.000000) translate(-229.000000, -316.000000) " x="219" y="306" width="20" height="20"></rect>
                <rect id="Rectangle-Copy-869" fill="#FFCD7A" transform="translate(189.000000, 316.000000) rotate(-180.000000) translate(-189.000000, -316.000000) " x="179" y="306" width="20" height="20"></rect>
                <rect id="Rectangle-Copy-870" fill="#2B507D" transform="translate(249.000000, 293.000000) rotate(-180.000000) translate(-249.000000, -293.000000) " x="239" y="283" width="20" height="20"></rect>
                <rect id="Rectangle-Copy-871" fill="#FFCD7A" transform="translate(209.000000, 293.000000) rotate(-180.000000) translate(-209.000000, -293.000000) " x="199" y="283" width="20" height="20"></rect>
                <rect id="Rectangle-Copy-872" fill="#2B507D" transform="translate(269.000000, 293.000000) rotate(-180.000000) translate(-269.000000, -293.000000) " x="259" y="283" width="20" height="20"></rect>
                <rect id="Rectangle-Copy-873" fill="#FFCD7A" transform="translate(229.000000, 293.000000) rotate(-180.000000) translate(-229.000000, -293.000000) " x="219" y="283" width="20" height="20"></rect>
                <rect id="Rectangle-Copy-874" fill="#FFCD7A" transform="translate(189.000000, 293.000000) rotate(-180.000000) translate(-189.000000, -293.000000) " x="179" y="283" width="20" height="20"></rect>
                <rect id="Rectangle-Copy-875" fill="#2B507D" transform="translate(249.000000, 270.000000) rotate(-180.000000) translate(-249.000000, -270.000000) " x="239" y="260" width="20" height="20"></rect>
                <rect id="Rectangle-Copy-876" fill="#FFCD7A" transform="translate(209.000000, 270.000000) rotate(-180.000000) translate(-209.000000, -270.000000) " x="199" y="260" width="20" height="20"></rect>
                <rect id="Rectangle-Copy-877" fill="#2B507D" transform="translate(269.000000, 270.000000) rotate(-180.000000) translate(-269.000000, -270.000000) " x="259" y="260" width="20" height="20"></rect>
                <rect id="Rectangle-Copy-878" fill="#FFCD7A" transform="translate(229.000000, 270.000000) rotate(-180.000000) translate(-229.000000, -270.000000) " x="219" y="260" width="20" height="20"></rect>
                <rect id="Rectangle-Copy-879" fill="#FFCD7A" transform="translate(189.000000, 270.000000) rotate(-180.000000) translate(-189.000000, -270.000000) " x="179" y="260" width="20" height="20"></rect>
                <rect id="Rectangle-Copy-880" fill="#2B507D" transform="translate(249.000000, 247.000000) rotate(-180.000000) translate(-249.000000, -247.000000) " x="239" y="237" width="20" height="20"></rect>
                <rect id="Rectangle-Copy-881" fill="#FFCD7A" transform="translate(209.000000, 247.000000) rotate(-180.000000) translate(-209.000000, -247.000000) " x="199" y="237" width="20" height="20"></rect>
                <rect id="Rectangle-Copy-882" fill="#2B507D" transform="translate(269.000000, 247.000000) rotate(-180.000000) translate(-269.000000, -247.000000) " x="259" y="237" width="20" height="20"></rect>
                <rect id="Rectangle-Copy-883" fill="#FFCD7A" transform="translate(229.000000, 247.000000) rotate(-180.000000) translate(-229.000000, -247.000000) " x="219" y="237" width="20" height="20"></rect>
                <rect id="Rectangle-Copy-884" fill="#FFCD7A" transform="translate(189.000000, 247.000000) rotate(-180.000000) translate(-189.000000, -247.000000) " x="179" y="237" width="20" height="20"></rect>
                <rect id="Rectangle-Copy-885" fill="#2B507D" transform="translate(249.000000, 224.000000) rotate(-180.000000) translate(-249.000000, -224.000000) " x="239" y="214" width="20" height="20"></rect>
                <rect id="Rectangle-Copy-886" fill="#4AADE2" transform="translate(209.000000, 224.000000) rotate(-180.000000) translate(-209.000000, -224.000000) " x="199" y="214" width="20" height="20"></rect>
                <rect id="Rectangle-Copy-887" fill="#2B507D" transform="translate(269.000000, 224.000000) rotate(-180.000000) translate(-269.000000, -224.000000) " x="259" y="214" width="20" height="20"></rect>
                <rect id="Rectangle-Copy-888" fill="#2B507D" transform="translate(229.000000, 224.000000) rotate(-180.000000) translate(-229.000000, -224.000000) " x="219" y="214" width="20" height="20"></rect>
                <rect id="Rectangle-Copy-889" fill="#FFCD7A" transform="translate(189.000000, 224.000000) rotate(-180.000000) translate(-189.000000, -224.000000) " x="179" y="214" width="20" height="20"></rect>
                <rect id="Rectangle-Copy-890" fill="#2B507D" transform="translate(249.000000, 201.000000) rotate(-180.000000) translate(-249.000000, -201.000000) " x="239" y="191" width="20" height="20"></rect>
                <rect id="Rectangle-Copy-891" fill="#2B507D" transform="translate(209.000000, 201.000000) rotate(-180.000000) translate(-209.000000, -201.000000) " x="199" y="191" width="20" height="20"></rect>
                <rect id="Rectangle-Copy-892" fill="#2B507D" transform="translate(269.000000, 201.000000) rotate(-180.000000) translate(-269.000000, -201.000000) " x="259" y="191" width="20" height="20"></rect>
                <rect id="Rectangle-Copy-893" fill="#2B507D" transform="translate(229.000000, 201.000000) rotate(-180.000000) translate(-229.000000, -201.000000) " x="219" y="191" width="20" height="20"></rect>
                <rect id="Rectangle-Copy-894" fill="#4AADE2" x="179" y="191" width="20" height="20"></rect>
                <rect id="Rectangle-Copy-895" fill="#2B507D" transform="translate(249.000000, 178.000000) rotate(-180.000000) translate(-249.000000, -178.000000) " x="239" y="168" width="20" height="20"></rect>
                <rect id="Rectangle-Copy-896" fill="#4AADE2" transform="translate(209.000000, 178.000000) rotate(-180.000000) translate(-209.000000, -178.000000) " x="199" y="168" width="20" height="20"></rect>
                <rect id="Rectangle-Copy-897" fill="#2B507D" transform="translate(269.000000, 178.000000) rotate(-180.000000) translate(-269.000000, -178.000000) " x="259" y="168" width="20" height="20"></rect>
                <rect id="Rectangle-Copy-898" fill="#2B507D" transform="translate(229.000000, 178.000000) rotate(-180.000000) translate(-229.000000, -178.000000) " x="219" y="168" width="20" height="20"></rect>
                <rect id="Rectangle-Copy-899" fill="#4AADE2" x="179" y="168" width="20" height="20"></rect>
                <rect id="Rectangle-Copy-900" fill="#2B507D" transform="translate(249.000000, 155.000000) rotate(-180.000000) translate(-249.000000, -155.000000) " x="239" y="145" width="20" height="20"></rect>
                <rect id="Rectangle-Copy-901" fill="#4AADE2" transform="translate(209.000000, 155.000000) rotate(-180.000000) translate(-209.000000, -155.000000) " x="199" y="145" width="20" height="20"></rect>
                <rect id="Rectangle-Copy-902" fill="#2B507D" transform="translate(269.000000, 155.000000) rotate(-180.000000) translate(-269.000000, -155.000000) " x="259" y="145" width="20" height="20"></rect>
                <rect id="Rectangle-Copy-903" fill="#2B507D" transform="translate(229.000000, 155.000000) rotate(-180.000000) translate(-229.000000, -155.000000) " x="219" y="145" width="20" height="20"></rect>
                <rect id="Rectangle-Copy-904" fill="#4AADE2" x="179" y="145" width="20" height="20"></rect>
                <rect id="Rectangle-Copy-905" fill="#4AADE2" transform="translate(249.000000, 132.000000) rotate(-180.000000) translate(-249.000000, -132.000000) " x="239" y="122" width="20" height="20"></rect>
                <rect id="Rectangle-Copy-906" fill="#4AADE2" transform="translate(209.000000, 132.000000) rotate(-180.000000) translate(-209.000000, -132.000000) " x="199" y="122" width="20" height="20"></rect>
                <rect id="Rectangle-Copy-907" fill="#2B507D" transform="translate(269.000000, 132.000000) rotate(-180.000000) translate(-269.000000, -132.000000) " x="259" y="122" width="20" height="20"></rect>
                <rect id="Rectangle-Copy-908" fill="#4AADE2" transform="translate(229.000000, 132.000000) rotate(-180.000000) translate(-229.000000, -132.000000) " x="219" y="122" width="20" height="20"></rect>
                <rect id="Rectangle-Copy-909" fill="#4AADE2" x="179" y="122" width="20" height="20"></rect>
                <rect id="Rectangle-Copy-910" fill="#4AADE2" transform="translate(249.000000, 109.000000) rotate(-180.000000) translate(-249.000000, -109.000000) " x="239" y="99" width="20" height="20"></rect>
                <rect id="Rectangle-Copy-911" fill="#4AADE2" transform="translate(209.000000, 109.000000) rotate(-180.000000) translate(-209.000000, -109.000000) " x="199" y="99" width="20" height="20"></rect>
                <rect id="Rectangle-Copy-912" fill="#4AADE2" transform="translate(269.000000, 109.000000) rotate(-180.000000) translate(-269.000000, -109.000000) " x="259" y="99" width="20" height="20"></rect>
                <rect id="Rectangle-Copy-913" fill="#4AADE2" transform="translate(229.000000, 109.000000) rotate(-180.000000) translate(-229.000000, -109.000000) " x="219" y="99" width="20" height="20"></rect>
                <rect id="Rectangle-Copy-914" fill="#4AADE2" x="179" y="99" width="20" height="20"></rect>
                <rect id="Rectangle-Copy-915" fill="#4AADE2" transform="translate(249.000000, 86.000000) rotate(-180.000000) translate(-249.000000, -86.000000) " x="239" y="76" width="20" height="20"></rect>
                <rect id="Rectangle-Copy-916" fill="#4AADE2" transform="translate(209.000000, 86.000000) rotate(-180.000000) translate(-209.000000, -86.000000) " x="199" y="76" width="20" height="20"></rect>
                <rect id="Rectangle-Copy-917" fill="#4AADE2" transform="translate(269.000000, 86.000000) rotate(-180.000000) translate(-269.000000, -86.000000) " x="259" y="76" width="20" height="20"></rect>
                <rect id="Rectangle-Copy-918" fill="#4AADE2" transform="translate(229.000000, 86.000000) rotate(-180.000000) translate(-229.000000, -86.000000) " x="219" y="76" width="20" height="20"></rect>
                <rect id="Rectangle-Copy-919" fill="#4AADE2" x="179" y="76" width="20" height="20"></rect>
                <rect id="Rectangle-Copy-920" fill="#4AADE2" transform="translate(249.000000, 63.000000) rotate(-180.000000) translate(-249.000000, -63.000000) " x="239" y="53" width="20" height="20"></rect>
                <rect id="Rectangle-Copy-921" fill="#4AADE2" transform="translate(209.000000, 63.000000) rotate(-180.000000) translate(-209.000000, -63.000000) " x="199" y="53" width="20" height="20"></rect>
                <rect id="Rectangle-Copy-922" fill="#4AADE2" transform="translate(269.000000, 63.000000) rotate(-180.000000) translate(-269.000000, -63.000000) " x="259" y="53" width="20" height="20"></rect>
                <rect id="Rectangle-Copy-923" fill="#4AADE2" transform="translate(229.000000, 63.000000) rotate(-180.000000) translate(-229.000000, -63.000000) " x="219" y="53" width="20" height="20"></rect>
                <rect id="Rectangle-Copy-924" fill="#4AADE2" x="179" y="53" width="20" height="20"></rect>
                <rect id="Rectangle-Copy-925" fill="#4AADE2" transform="translate(249.000000, 40.000000) rotate(-180.000000) translate(-249.000000, -40.000000) " x="239" y="30" width="20" height="20"></rect>
                <rect id="Rectangle-Copy-926" fill="#4AADE2" transform="translate(209.000000, 40.000000) rotate(-180.000000) translate(-209.000000, -40.000000) " x="199" y="30" width="20" height="20"></rect>
                <rect id="Rectangle-Copy-927" fill="#4AADE2" transform="translate(269.000000, 40.000000) rotate(-180.000000) translate(-269.000000, -40.000000) " x="259" y="30" width="20" height="20"></rect>
                <rect id="Rectangle-Copy-928" fill="#4AADE2" transform="translate(229.000000, 40.000000) rotate(-180.000000) translate(-229.000000, -40.000000) " x="219" y="30" width="20" height="20"></rect>
                <rect id="Rectangle-Copy-929" fill="#4AADE2" x="179" y="30" width="20" height="20"></rect>
                <text id="2009" font-family="PTSans-Regular, PT Sans" font-size="12" font-weight="normal" fill="#232323">
                    <tspan x="126.84" y="66">2009</tspan>
                </text>
                <text id="2010" font-family="PTSans-Regular, PT Sans" font-size="12" font-weight="normal" fill="#232323">
                    <tspan x="126.84" y="137">2010</tspan>
                </text>
                <text id="2011" font-family="PTSans-Regular, PT Sans" font-size="12" font-weight="normal" fill="#232323">
                    <tspan x="126.84" y="208">2011</tspan>
                </text>
                <text id="2012" font-family="PTSans-Regular, PT Sans" font-size="12" font-weight="normal" fill="#232323">
                    <tspan x="126.84" y="273">2012</tspan>
                </text>
                <text id="2013" font-family="PTSans-Regular, PT Sans" font-size="12" font-weight="normal" fill="#232323">
                    <tspan x="126.84" y="343">2013</tspan>
                </text>
                <text id="2014" font-family="PTSans-Regular, PT Sans" font-size="12" font-weight="normal" fill="#232323">
                    <tspan x="126.84" y="411">2014</tspan>
                </text>
                <text id="2015" font-family="PTSans-Regular, PT Sans" font-size="12" font-weight="normal" fill="#232323">
                    <tspan x="126.84" y="480">2015</tspan>
                </text>
                <text id="2016" font-family="PTSans-Regular, PT Sans" font-size="12" font-weight="normal" fill="#232323">
                    <tspan x="126.84" y="549">2016</tspan>
                </text>
                <text id="2017" font-family="PTSans-Regular, PT Sans" font-size="12" font-weight="normal" fill="#232323">
                    <tspan x="126.84" y="619">2017</tspan>
                </text>
                <text id="2018" font-family="PTSans-Regular, PT Sans" font-size="12" font-weight="normal" fill="#232323">
                    <tspan x="126.84" y="687">2018</tspan>
                </text>
                <text id="2019" font-family="PTSans-Regular, PT Sans" font-size="12" font-weight="normal" fill="#232323">
                    <tspan x="126.84" y="751">2019</tspan>
                </text>
                <path d="M179.491538,21.5 L297.5,21.5" id="Line-4" stroke="#D7D7D7" stroke-linecap="square"></path>
                <polygon id="Rectangle-4" fill="#D7D7D7" transform="translate(182.439340, 21.439340) rotate(-315.000000) translate(-182.439340, -21.439340) " points="179.300253 18.3002525 185.578427 24.5784271 179.300253 24.5784271"></polygon>
                <polygon id="Rectangle-4" fill="#D7D7D7" transform="translate(294.439340, 21.439340) rotate(-135.000000) translate(-294.439340, -21.439340) " points="291.300253 18.3002525 297.578427 24.5784271 291.300253 24.5784271"></polygon>
                <text id="Focus" font-family="PTSans-Regular, PT Sans" font-size="12" font-weight="normal" fill="#232323">
                    <tspan x="224" y="11">Focus</tspan>
                </text>
                <text id="Graphic-Design-Copy-9" font-family="PTSans-Bold, PT Sans" font-size="16" font-weight="bold" fill="#4AADE2">
                    <tspan x="50.616" y="44">Graphic Design</tspan>
                </text>
                <text id="Visual-&amp;-UI-Design" font-family="PTSans-Bold, PT Sans" font-size="16" font-weight="bold" fill="#2B507D">
                    <tspan x="24.472" y="159">Visual &amp; UI Design</tspan>
                </text>
                <text id="UI-Development" font-family="PTSans-Bold, PT Sans" font-size="16" font-weight="bold" fill="#FFCD7A">
                    <tspan x="43.208" y="320">UI Development</tspan>
                </text>
                <text id="UX-Design-&amp;-Research" font-family="PTSans-Bold, PT Sans" font-size="16" font-weight="bold" fill="#47D8D8">
                    <tspan x="0.248" y="458">UX Design &amp; Research</tspan>
                </text>
                <text id="Product-Design-/-Ops" font-family="PTSans-Bold, PT Sans" font-size="16" font-weight="bold" fill="#A68AFF">
                    <tspan x="8.952" y="714">Product Design / Ops</tspan>
                </text>
            </g>
        </g>
    </g>
</svg>