<?xml version="1.0" encoding="UTF-8"?>
<svg width="24px" height="24px" viewBox="0 0 24 24" version="1.1" xmlns="http://www.w3.org/2000/svg" xmlns:xlink="http://www.w3.org/1999/xlink">
    <!-- Generator: Sketch 52.5 (67469) - http://www.bohemiancoding.com/sketch -->
    <title>Github-black</title>
    <desc>Created with Sketch.</desc>
    <g id="Visual-playground" stroke="none" stroke-width="1" fill="none" fill-rule="evenodd">
        <g id="Home-Full-HD-Copy-5" transform="translate(-879.000000, -5738.000000)" fill="#2B3E56">
            <path d="M890.99925,5738 C884.373,5738 879,5743.5083 879,5750.30467 C879,5755.73992 882.438,5760.35157 887.20725,5761.97876 C887.80725,5762.09181 888.02625,5761.71192 888.02625,5761.38587 C888.02625,5761.09365 888.01575,5760.32004 888.00975,5759.29344 C884.6715,5760.03705 883.96725,5757.64395 883.96725,5757.64395 C883.422,5756.22285 882.63525,5755.8445 882.63525,5755.8445 C881.5455,5755.08089 882.71775,5755.09627 882.71775,5755.09627 C883.9215,5755.18317 884.55525,5756.36434 884.55525,5756.36434 C885.62625,5758.24453 887.364,5757.70162 888.048,5757.38633 C888.15675,5756.59119 888.46725,5756.04905 888.81,5755.74146 C886.14525,5755.43078 883.344,5754.37572 883.344,5749.66102 C883.344,5748.31759 883.81125,5747.21947 884.57925,5746.35896 C884.4555,5746.04752 884.04375,5744.79714 884.69625,5743.10304 C884.69625,5743.10304 885.70425,5742.77238 887.99625,5744.36419 C888.954,5744.0912 889.98,5743.95509 891.00075,5743.9497 C892.02,5743.95509 893.04675,5744.0912 894.00525,5744.36419 C896.29575,5742.77238 897.3015,5743.10304 897.3015,5743.10304 C897.95625,5744.79714 897.5445,5746.04752 897.42075,5746.35896 C898.19025,5747.21947 898.6545,5748.31759 898.6545,5749.66102 C898.6545,5754.38726 895.84875,5755.42771 893.17575,5755.73223 C893.60625,5756.11211 893.99025,5756.86265 893.99025,5758.01076 C893.99025,5759.65563 893.97525,5760.98215 893.97525,5761.38587 C893.97525,5761.715 894.19125,5762.09796 894.80025,5761.97723 C899.565,5760.34696 903,5755.73838 903,5750.30467 C903,5743.5083 897.627,5738 890.99925,5738" id="Github"></path>
        </g>
    </g>
</svg>