<?xml version="1.0" encoding="UTF-8"?>
<svg width="24px" height="24px" viewBox="0 0 24 24" version="1.1" xmlns="http://www.w3.org/2000/svg" xmlns:xlink="http://www.w3.org/1999/xlink">
    <!-- Generator: Sketch 52.5 (67469) - http://www.bohemiancoding.com/sketch -->
    <title>Instagram-color</title>
    <desc>Created with Sketch.</desc>
    <g id="Visual-playground" stroke="none" stroke-width="1" fill="none" fill-rule="evenodd">
        <g id="Home-Full-HD-Copy-5" transform="translate(-1085.000000, -5738.000000)" fill="#2B3E56">
            <path d="M1097.00002,5738 C1100.259,5738 1100.66766,5738.01381 1101.94758,5738.07221 C1103.22484,5738.13047 1104.09717,5738.33334 1104.86046,5738.63001 C1105.64956,5738.93663 1106.31877,5739.34695 1106.98594,5740.01406 C1107.65305,5740.68123 1108.06337,5741.35044 1108.37004,5742.13954 C1108.66666,5742.90283 1108.86953,5743.77516 1108.92779,5745.05242 C1108.98619,5746.33234 1109,5746.741 1109,5750.00002 C1109,5753.259 1108.98619,5753.66766 1108.92779,5754.94758 C1108.86953,5756.22484 1108.66666,5757.09717 1108.37004,5757.86046 C1108.06337,5758.64956 1107.65305,5759.31877 1106.98594,5759.98594 C1106.31877,5760.65305 1105.64956,5761.06337 1104.86046,5761.37004 C1104.09717,5761.66666 1103.22484,5761.86953 1101.94758,5761.92779 C1100.66766,5761.98619 1100.259,5762 1097.00002,5762 C1093.741,5762 1093.33234,5761.98619 1092.05242,5761.92779 C1090.77516,5761.86953 1089.90283,5761.66666 1089.13954,5761.37004 C1088.35044,5761.06337 1087.68123,5760.65305 1087.01406,5759.98594 C1086.34695,5759.31877 1085.93663,5758.64956 1085.63001,5757.86046 C1085.33334,5757.09717 1085.13047,5756.22484 1085.07221,5754.94758 C1085.01381,5753.66766 1085,5753.259 1085,5750.00002 C1085,5746.741 1085.01381,5746.33234 1085.07221,5745.05242 C1085.13047,5743.77516 1085.33334,5742.90283 1085.63001,5742.13954 C1085.93663,5741.35044 1086.34695,5740.68123 1087.01406,5740.01406 C1087.68123,5739.34695 1088.35044,5738.93663 1089.13954,5738.63001 C1089.90283,5738.33334 1090.77516,5738.13047 1092.05242,5738.07221 C1093.33234,5738.01381 1093.741,5738 1097.00002,5738 Z M1097.00002,5740.16216 C1093.79587,5740.16216 1093.41632,5740.1744 1092.15097,5740.23213 C1090.98098,5740.28548 1090.34559,5740.48097 1089.92274,5740.64531 C1089.36261,5740.863 1088.96287,5741.12303 1088.54297,5741.54297 C1088.12303,5741.96287 1087.863,5742.36261 1087.64531,5742.92274 C1087.48097,5743.34559 1087.28548,5743.98098 1087.23213,5745.15097 C1087.1744,5746.41632 1087.16216,5746.79587 1087.16216,5750.00002 C1087.16216,5753.20413 1087.1744,5753.58368 1087.23213,5754.84903 C1087.28548,5756.01902 1087.48097,5756.65441 1087.64531,5757.07726 C1087.863,5757.63739 1088.12308,5758.03713 1088.54297,5758.45703 C1088.96287,5758.87697 1089.36261,5759.137 1089.92274,5759.35469 C1090.34559,5759.51903 1090.98098,5759.71452 1092.15097,5759.76787 C1093.41618,5759.8256 1093.79563,5759.83784 1097.00002,5759.83784 C1100.20437,5759.83784 1100.58387,5759.8256 1101.84903,5759.76787 C1103.01902,5759.71452 1103.65441,5759.51903 1104.07726,5759.35469 C1104.63739,5759.137 1105.03713,5758.87697 1105.45703,5758.45703 C1105.87697,5758.03713 1106.137,5757.63739 1106.35469,5757.07726 C1106.51903,5756.65441 1106.71452,5756.01902 1106.76787,5754.84903 C1106.8256,5753.58368 1106.83784,5753.20413 1106.83784,5750.00002 C1106.83784,5746.79587 1106.8256,5746.41632 1106.76787,5745.15097 C1106.71452,5743.98098 1106.51903,5743.34559 1106.35469,5742.92274 C1106.137,5742.36261 1105.87697,5741.96287 1105.45703,5741.54297 C1105.03713,5741.12303 1104.63739,5740.863 1104.07726,5740.64531 C1103.65441,5740.48097 1103.01902,5740.28548 1101.84903,5740.23213 C1100.58368,5740.1744 1100.20413,5740.16216 1097.00002,5740.16216 Z M1097.00002,5743.83784 C1100.40329,5743.83784 1103.16216,5746.59671 1103.16216,5750.00002 C1103.16216,5753.40329 1100.40329,5756.16216 1097.00002,5756.16216 C1093.59671,5756.16216 1090.83784,5753.40329 1090.83784,5750.00002 C1090.83784,5746.59671 1093.59671,5743.83784 1097.00002,5743.83784 Z M1097.00002,5754 C1099.20915,5754 1101,5752.20915 1101,5750.00002 C1101,5747.79085 1099.20915,5746 1097.00002,5746 C1094.79085,5746 1093,5747.79085 1093,5750.00002 C1093,5752.20915 1094.79085,5754 1097.00002,5754 Z M1104.84564,5743.59438 C1104.84564,5744.38968 1104.20091,5745.03436 1103.40562,5745.03436 C1102.61037,5745.03436 1101.96564,5744.38968 1101.96564,5743.59438 C1101.96564,5742.79909 1102.61037,5742.15436 1103.40562,5742.15436 C1104.20091,5742.15436 1104.84564,5742.79909 1104.84564,5743.59438 Z" id="Instagram"></path>
        </g>
    </g>
</svg>