<?xml version="1.0" encoding="UTF-8"?>
<svg width="23px" height="21px" viewBox="0 0 23 21" version="1.1" xmlns="http://www.w3.org/2000/svg" xmlns:xlink="http://www.w3.org/1999/xlink">
    <!-- Generator: Sketch 52.5 (67469) - http://www.bohemiancoding.com/sketch -->
    <title>LinkedIn-color</title>
    <desc>Created with Sketch.</desc>
    <g id="Visual-playground" stroke="none" stroke-width="1" fill="none" fill-rule="evenodd">
        <g id="Home-Full-HD-Copy-5" transform="translate(-813.000000, -5740.000000)" fill="#2B3E56">
            <path d="M836,5761 L830.916686,5761 L830.916686,5753.61766 C830.916686,5751.68534 830.121531,5750.3662 828.373001,5750.3662 C827.035571,5750.3662 826.291804,5751.25639 825.945614,5752.1143 C825.815793,5752.42223 825.836077,5752.85119 825.836077,5753.28014 L825.836077,5761 L820.800094,5761 C820.800094,5761 820.865005,5747.9229 820.800094,5746.7342 L825.836077,5746.7342 L825.836077,5748.97311 C826.133584,5747.99417 827.742827,5746.59704 830.310854,5746.59704 C833.496884,5746.59704 836,5748.64904 836,5753.06768 L836,5761 L836,5761 Z M815.707314,5744.9498 L815.674859,5744.9498 C814.052093,5744.9498 813,5743.85926 813,5742.47692 C813,5741.06768 814.083196,5740 815.738417,5740 C817.392286,5740 818.409219,5741.06499 818.441675,5742.47288 C818.441675,5743.85522 817.392286,5744.9498 815.707314,5744.9498 L815.707314,5744.9498 L815.707314,5744.9498 Z M813.580139,5746.7342 L818.063029,5746.7342 L818.063029,5761 L813.580139,5761 L813.580139,5746.7342 L813.580139,5746.7342 Z" id="LinkedIn"></path>
        </g>
    </g>
</svg>