<?xml version="1.0" encoding="UTF-8"?>
<svg width="24px" height="21px" viewBox="0 0 24 21" version="1.1" xmlns="http://www.w3.org/2000/svg" xmlns:xlink="http://www.w3.org/1999/xlink">
    <!-- Generator: Sketch 52.5 (67469) - http://www.bohemiancoding.com/sketch -->
    <title>Twitter-color</title>
    <desc>Created with Sketch.</desc>
    <g id="Visual-playground" stroke="none" stroke-width="1" fill="none" fill-rule="evenodd">
        <g id="Home-Full-HD-Copy-5" transform="translate(-941.000000, -5740.000000)" fill="#2B3E56">
            <path d="M965,5742.48602 C964.118155,5742.90769 963.168692,5743.19285 962.172742,5743.32026 C963.189822,5742.66501 963.970241,5741.626 964.337912,5740.3883 C963.385631,5740.99502 962.333333,5741.4364 961.209192,5741.67302 C960.313259,5740.64312 959.032752,5740 957.615601,5740 C954.898222,5740 952.693608,5742.37378 952.693608,5745.30119 C952.693608,5745.71679 952.735869,5746.12026 952.820391,5746.50856 C948.728121,5746.28711 945.100722,5744.17876 942.670717,5740.96771 C942.246698,5741.75341 942.004402,5742.66501 942.004402,5743.63575 C942.004402,5745.47411 942.873569,5747.09707 944.194929,5748.0481 C943.389153,5748.02232 942.628456,5747.78115 941.96355,5747.38678 L941.96355,5747.452 C941.96355,5750.02145 943.661032,5752.16468 945.91495,5752.65005 C945.502201,5752.77443 945.066913,5752.83662 944.617538,5752.83662 C944.300581,5752.83662 943.990667,5752.80477 943.690615,5752.74258 C944.317485,5754.84789 946.134707,5756.38137 948.290016,5756.42232 C946.605212,5757.84507 944.480895,5758.69296 942.174855,5758.69296 C941.777602,5758.69296 941.384575,5758.66869 941,5758.62015 C943.179257,5760.12178 945.768445,5761 948.547808,5761 C957.60574,5761 962.557316,5752.92308 962.557316,5745.91701 C962.557316,5745.68646 962.55309,5745.4559 962.544638,5745.2299 C963.506779,5744.48212 964.342138,5743.5493 965,5742.48602" id="Twitter"></path>
        </g>
    </g>
</svg>