<?xml version="1.0" encoding="UTF-8"?>
<svg width="300px" height="763px" viewBox="0 0 300 763" version="1.1" xmlns="http://www.w3.org/2000/svg" xmlns:xlink="http://www.w3.org/1999/xlink">
    <!-- Generator: Sketch 52.6 (67491) - http://www.bohemiancoding.com/sketch -->
    <title>Group 10</title>
    <desc>Created with Sketch.</desc>
    <g id="Icons" stroke="none" stroke-width="1" fill="none" fill-rule="evenodd">
        <g id="Group-10" transform="translate(1.000000, 0.000000)">
            <rect id="Rectangle" fill-rule="nonzero" x="0" y="0" width="300" height="763"></rect>
            <g id="Group-9">
                <g id="Group-2" transform="translate(239.000000, 396.500000) scale(-1, 1) rotate(180.000000) translate(-239.000000, -396.500000) translate(179.000000, 30.000000)">
                    <path d="M0.498945152,235.666667 L119,235.666667" id="Line-2" stroke="#BEBEBE" stroke-linecap="square" transform="translate(59.500000, 287.000000) rotate(-180.000000) translate(-59.500000, -287.000000) "></path>
                    <rect id="Rectangle-Copy-738" fill="#47D8D8" transform="translate(110.000000, 677.000000) rotate(-180.000000) translate(-110.000000, -677.000000) " x="100" y="667" width="20" height="20"></rect>
                    <rect id="Rectangle-Copy-739" fill="#47D8D8" transform="translate(110.000000, 654.000000) rotate(-180.000000) translate(-110.000000, -654.000000) " x="100" y="644" width="20" height="20"></rect>
                    <rect id="Rectangle-Copy-740" fill="#47D8D8" transform="translate(110.000000, 631.000000) rotate(-180.000000) translate(-110.000000, -631.000000) " x="100" y="621" width="20" height="20"></rect>
                    <rect id="Rectangle-Copy-741" fill="#47D8D8" transform="translate(110.000000, 608.000000) rotate(-180.000000) translate(-110.000000, -608.000000) " x="100" y="598" width="20" height="20"></rect>
                    <rect id="Rectangle-Copy-742" fill="#47D8D8" transform="translate(110.000000, 585.000000) rotate(-180.000000) translate(-110.000000, -585.000000) " x="100" y="575" width="20" height="20"></rect>
                    <rect id="Rectangle-Copy-743" fill="#47D8D8" transform="translate(110.000000, 562.000000) rotate(-180.000000) translate(-110.000000, -562.000000) " x="100" y="552" width="20" height="20"></rect>
                    <rect id="Rectangle-Copy-744" fill="#47D8D8" transform="translate(110.000000, 539.000000) rotate(-180.000000) translate(-110.000000, -539.000000) " x="100" y="529" width="20" height="20"></rect>
                    <rect id="Rectangle-Copy-745" fill="#47D8D8" transform="translate(110.000000, 516.000000) rotate(-180.000000) translate(-110.000000, -516.000000) " x="100" y="506" width="20" height="20"></rect>
                    <rect id="Rectangle-Copy-746" fill="#47D8D8" transform="translate(110.000000, 493.000000) rotate(-180.000000) translate(-110.000000, -493.000000) " x="100" y="483" width="20" height="20"></rect>
                    <rect id="Rectangle-Copy-747" fill="#47D8D8" transform="translate(110.000000, 470.000000) rotate(-180.000000) translate(-110.000000, -470.000000) " x="100" y="460" width="20" height="20"></rect>
                    <rect id="Rectangle-Copy-748" fill="#47D8D8" transform="translate(110.000000, 447.000000) rotate(-180.000000) translate(-110.000000, -447.000000) " x="100" y="437" width="20" height="20"></rect>
                    <rect id="Rectangle-Copy-749" fill="#47D8D8" transform="translate(110.000000, 424.000000) rotate(-180.000000) translate(-110.000000, -424.000000) " x="100" y="414" width="20" height="20"></rect>
                    <rect id="Rectangle-Copy-750" fill="#47D8D8" transform="translate(110.000000, 401.000000) rotate(-180.000000) translate(-110.000000, -401.000000) " x="100" y="391" width="20" height="20"></rect>
                    <rect id="Rectangle-Copy-751" fill="#47D8D8" transform="translate(110.000000, 378.000000) rotate(-180.000000) translate(-110.000000, -378.000000) " x="100" y="368" width="20" height="20"></rect>
                    <rect id="Rectangle-Copy-752" fill="#47D8D8" transform="translate(110.000000, 355.000000) rotate(-180.000000) translate(-110.000000, -355.000000) " x="100" y="345" width="20" height="20"></rect>
                    <rect id="Rectangle-Copy-753" fill="#2B507D" transform="translate(110.000000, 332.000000) rotate(-180.000000) translate(-110.000000, -332.000000) " x="100" y="322" width="20" height="20"></rect>
                    <rect id="Rectangle-Copy-754" fill="#2B507D" transform="translate(110.000000, 309.000000) rotate(-180.000000) translate(-110.000000, -309.000000) " x="100" y="299" width="20" height="20"></rect>
                    <rect id="Rectangle-Copy-755" fill="#2B507D" transform="translate(110.000000, 286.000000) rotate(-180.000000) translate(-110.000000, -286.000000) " x="100" y="276" width="20" height="20"></rect>
                    <rect id="Rectangle-Copy-756" fill="#2B507D" transform="translate(110.000000, 263.000000) rotate(-180.000000) translate(-110.000000, -263.000000) " x="100" y="253" width="20" height="20"></rect>
                    <rect id="Rectangle-Copy-757" fill="#2B507D" transform="translate(110.000000, 240.000000) rotate(-180.000000) translate(-110.000000, -240.000000) " x="100" y="230" width="20" height="20"></rect>
                    <rect id="Rectangle-Copy-758" fill="#2B507D" transform="translate(110.000000, 217.000000) rotate(-180.000000) translate(-110.000000, -217.000000) " x="100" y="207" width="20" height="20"></rect>
                    <rect id="Rectangle-Copy-759" fill="#2B507D" transform="translate(110.000000, 194.000000) rotate(-180.000000) translate(-110.000000, -194.000000) " x="100" y="184" width="20" height="20"></rect>
                    <rect id="Rectangle-Copy-760" fill="#2B507D" transform="translate(110.000000, 171.000000) rotate(-180.000000) translate(-110.000000, -171.000000) " x="100" y="161" width="20" height="20"></rect>
                    <rect id="Rectangle-Copy-761" fill="#2B507D" transform="translate(110.000000, 148.000000) rotate(-180.000000) translate(-110.000000, -148.000000) " x="100" y="138" width="20" height="20"></rect>
                    <rect id="Rectangle-Copy-762" fill="#2B507D" transform="translate(110.000000, 125.000000) rotate(-180.000000) translate(-110.000000, -125.000000) " x="100" y="115" width="20" height="20"></rect>
                    <rect id="Rectangle-Copy-763" fill="#2B507D" transform="translate(110.000000, 102.000000) rotate(-180.000000) translate(-110.000000, -102.000000) " x="100" y="92" width="20" height="20"></rect>
                    <rect id="Rectangle-Copy-764" fill="#2B507D" transform="translate(110.000000, 79.000000) rotate(-180.000000) translate(-110.000000, -79.000000) " x="100" y="69" width="20" height="20"></rect>
                    <rect id="Rectangle-Copy-765" fill="#4AADE2" transform="translate(110.000000, 56.000000) rotate(-180.000000) translate(-110.000000, -56.000000) " x="100" y="46" width="20" height="20"></rect>
                    <rect id="Rectangle-Copy-766" fill="#4AADE2" transform="translate(110.000000, 33.000000) rotate(-180.000000) translate(-110.000000, -33.000000) " x="100" y="23" width="20" height="20"></rect>
                    <rect id="Rectangle-Copy-767" fill="#4AADE2" transform="translate(110.000000, 10.000000) rotate(-180.000000) translate(-110.000000, -10.000000) " x="100" y="0" width="20" height="20"></rect>
                    <rect id="Rectangle-Copy-768" fill="#A68AFF" transform="translate(70.000000, 677.000000) rotate(-180.000000) translate(-70.000000, -677.000000) " x="60" y="667" width="20" height="20"></rect>
                    <rect id="Rectangle-Copy-769" fill="#A68AFF" transform="translate(30.000000, 677.000000) rotate(-180.000000) translate(-30.000000, -677.000000) " x="20" y="667" width="20" height="20"></rect>
                    <rect id="Rectangle-Copy-770" fill="#47D8D8" transform="translate(90.000000, 677.000000) rotate(-180.000000) translate(-90.000000, -677.000000) " x="80" y="667" width="20" height="20"></rect>
                    <rect id="Rectangle-Copy-771" fill="#A68AFF" transform="translate(50.000000, 677.000000) rotate(-180.000000) translate(-50.000000, -677.000000) " x="40" y="667" width="20" height="20"></rect>
                    <rect id="Rectangle-Copy-772" fill="#A68AFF" transform="translate(10.000000, 677.000000) rotate(-180.000000) translate(-10.000000, -677.000000) " x="-1.13686838e-13" y="667" width="20" height="20"></rect>
                    <rect id="Rectangle-Copy-773" fill="#47D8D8" transform="translate(110.000000, 700.000000) rotate(-180.000000) translate(-110.000000, -700.000000) " x="100" y="690" width="20" height="20"></rect>
                    <rect id="Rectangle-Copy-774" fill="#A68AFF" transform="translate(70.000000, 700.000000) rotate(-180.000000) translate(-70.000000, -700.000000) " x="60" y="690" width="20" height="20"></rect>
                    <rect id="Rectangle-Copy-775" fill="#A68AFF" transform="translate(30.000000, 700.000000) rotate(-180.000000) translate(-30.000000, -700.000000) " x="20" y="690" width="20" height="20"></rect>
                    <rect id="Rectangle-Copy-776" fill="#47D8D8" transform="translate(90.000000, 700.000000) rotate(-180.000000) translate(-90.000000, -700.000000) " x="80" y="690" width="20" height="20"></rect>
                    <rect id="Rectangle-Copy-777" fill="#A68AFF" transform="translate(50.000000, 700.000000) rotate(-180.000000) translate(-50.000000, -700.000000) " x="40" y="690" width="20" height="20"></rect>
                    <rect id="Rectangle-Copy-778" fill="#FFBC9A" transform="translate(10.000000, 700.000000) rotate(-180.000000) translate(-10.000000, -700.000000) " x="-1.13686838e-13" y="690" width="20" height="20"></rect>
                    <rect id="Rectangle-Copy-779" fill="#47D8D8" transform="translate(110.000000, 723.000000) rotate(-180.000000) translate(-110.000000, -723.000000) " x="100" y="713" width="20" height="20"></rect>
                    <rect id="Rectangle-Copy-780" fill="#A68AFF" transform="translate(70.000000, 723.000000) rotate(-180.000000) translate(-70.000000, -723.000000) " x="60" y="713" width="20" height="20"></rect>
                    <rect id="Rectangle-Copy-781" fill="#A68AFF" transform="translate(30.000000, 723.000000) rotate(-180.000000) translate(-30.000000, -723.000000) " x="20" y="713" width="20" height="20"></rect>
                    <rect id="Rectangle-Copy-782" fill="#47D8D8" transform="translate(90.000000, 723.000000) rotate(-180.000000) translate(-90.000000, -723.000000) " x="80" y="713" width="20" height="20"></rect>
                    <rect id="Rectangle-Copy-783" fill="#A68AFF" transform="translate(50.000000, 723.000000) rotate(-180.000000) translate(-50.000000, -723.000000) " x="40" y="713" width="20" height="20"></rect>
                    <rect id="Rectangle-Copy-784" fill="#FFBC9A" transform="translate(10.000000, 723.000000) rotate(-180.000000) translate(-10.000000, -723.000000) " x="-1.13686838e-13" y="713" width="20" height="20"></rect>
                    <rect id="Rectangle-Copy-785" fill="#47D8D8" transform="translate(70.000000, 654.000000) rotate(-180.000000) translate(-70.000000, -654.000000) " x="60" y="644" width="20" height="20"></rect>
                    <rect id="Rectangle-Copy-786" fill="#A68AFF" transform="translate(30.000000, 654.000000) rotate(-180.000000) translate(-30.000000, -654.000000) " x="20" y="644" width="20" height="20"></rect>
                    <rect id="Rectangle-Copy-787" fill="#47D8D8" transform="translate(90.000000, 654.000000) rotate(-180.000000) translate(-90.000000, -654.000000) " x="80" y="644" width="20" height="20"></rect>
                    <rect id="Rectangle-Copy-788" fill="#A68AFF" transform="translate(50.000000, 654.000000) rotate(-180.000000) translate(-50.000000, -654.000000) " x="40" y="644" width="20" height="20"></rect>
                    <rect id="Rectangle-Copy-789" fill="#A68AFF" transform="translate(10.000000, 654.000000) rotate(-180.000000) translate(-10.000000, -654.000000) " x="-1.13686838e-13" y="644" width="20" height="20"></rect>
                    <rect id="Rectangle-Copy-790" fill="#47D8D8" transform="translate(70.000000, 631.000000) rotate(-180.000000) translate(-70.000000, -631.000000) " x="60" y="621" width="20" height="20"></rect>
                    <rect id="Rectangle-Copy-791" fill="#A68AFF" transform="translate(30.000000, 631.000000) rotate(-180.000000) translate(-30.000000, -631.000000) " x="20" y="621" width="20" height="20"></rect>
                    <rect id="Rectangle-Copy-792" fill="#47D8D8" transform="translate(90.000000, 631.000000) rotate(-180.000000) translate(-90.000000, -631.000000) " x="80" y="621" width="20" height="20"></rect>
                    <rect id="Rectangle-Copy-793" fill="#47D8D8" transform="translate(50.000000, 631.000000) rotate(-180.000000) translate(-50.000000, -631.000000) " x="40" y="621" width="20" height="20"></rect>
                    <rect id="Rectangle-Copy-794" fill="#A68AFF" transform="translate(10.000000, 631.000000) rotate(-180.000000) translate(-10.000000, -631.000000) " x="-1.13686838e-13" y="621" width="20" height="20"></rect>
                    <rect id="Rectangle-Copy-795" fill="#47D8D8" transform="translate(70.000000, 608.000000) rotate(-180.000000) translate(-70.000000, -608.000000) " x="60" y="598" width="20" height="20"></rect>
                    <rect id="Rectangle-Copy-796" fill="#A68AFF" transform="translate(30.000000, 608.000000) rotate(-180.000000) translate(-30.000000, -608.000000) " x="20" y="598" width="20" height="20"></rect>
                    <rect id="Rectangle-Copy-797" fill="#47D8D8" transform="translate(90.000000, 608.000000) rotate(-180.000000) translate(-90.000000, -608.000000) " x="80" y="598" width="20" height="20"></rect>
                    <rect id="Rectangle-Copy-798" fill="#47D8D8" transform="translate(50.000000, 608.000000) rotate(-180.000000) translate(-50.000000, -608.000000) " x="40" y="598" width="20" height="20"></rect>
                    <rect id="Rectangle-Copy-799" fill="#A68AFF" transform="translate(10.000000, 608.000000) rotate(-180.000000) translate(-10.000000, -608.000000) " x="-1.13686838e-13" y="598" width="20" height="20"></rect>
                    <rect id="Rectangle-Copy-800" fill="#47D8D8" transform="translate(70.000000, 585.000000) rotate(-180.000000) translate(-70.000000, -585.000000) " x="60" y="575" width="20" height="20"></rect>
                    <rect id="Rectangle-Copy-801" fill="#2B507D" transform="translate(30.000000, 585.000000) rotate(-180.000000) translate(-30.000000, -585.000000) " x="20" y="575" width="20" height="20"></rect>
                    <rect id="Rectangle-Copy-802" fill="#47D8D8" transform="translate(90.000000, 585.000000) rotate(-180.000000) translate(-90.000000, -585.000000) " x="80" y="575" width="20" height="20"></rect>
                    <rect id="Rectangle-Copy-803" fill="#47D8D8" transform="translate(50.000000, 585.000000) rotate(-180.000000) translate(-50.000000, -585.000000) " x="40" y="575" width="20" height="20"></rect>
                    <rect id="Rectangle-Copy-804" fill="#A68AFF" transform="translate(10.000000, 585.000000) rotate(-180.000000) translate(-10.000000, -585.000000) " x="-1.13686838e-13" y="575" width="20" height="20"></rect>
                    <rect id="Rectangle-Copy-805" fill="#47D8D8" transform="translate(70.000000, 562.000000) rotate(-180.000000) translate(-70.000000, -562.000000) " x="60" y="552" width="20" height="20"></rect>
                    <rect id="Rectangle-Copy-806" fill="#2B507D" transform="translate(30.000000, 562.000000) rotate(-180.000000) translate(-30.000000, -562.000000) " x="20" y="552" width="20" height="20"></rect>
                    <rect id="Rectangle-Copy-807" fill="#47D8D8" transform="translate(90.000000, 562.000000) rotate(-180.000000) translate(-90.000000, -562.000000) " x="80" y="552" width="20" height="20"></rect>
                    <rect id="Rectangle-Copy-808" fill="#47D8D8" transform="translate(50.000000, 562.000000) rotate(-180.000000) translate(-50.000000, -562.000000) " x="40" y="552" width="20" height="20"></rect>
                    <rect id="Rectangle-Copy-809" fill="#FFBC9A" transform="translate(10.000000, 562.000000) rotate(-180.000000) translate(-10.000000, -562.000000) " x="-1.13686838e-13" y="552" width="20" height="20"></rect>
                    <rect id="Rectangle-Copy-810" fill="#47D8D8" transform="translate(70.000000, 539.000000) rotate(-180.000000) translate(-70.000000, -539.000000) " x="60" y="529" width="20" height="20"></rect>
                    <rect id="Rectangle-Copy-811" fill="#2B507D" transform="translate(30.000000, 539.000000) rotate(-180.000000) translate(-30.000000, -539.000000) " x="20" y="529" width="20" height="20"></rect>
                    <rect id="Rectangle-Copy-812" fill="#47D8D8" transform="translate(90.000000, 539.000000) rotate(-180.000000) translate(-90.000000, -539.000000) " x="80" y="529" width="20" height="20"></rect>
                    <rect id="Rectangle-Copy-813" fill="#2B507D" transform="translate(50.000000, 539.000000) rotate(-180.000000) translate(-50.000000, -539.000000) " x="40" y="529" width="20" height="20"></rect>
                    <rect id="Rectangle-Copy-814" fill="#FFBC9A" transform="translate(10.000000, 539.000000) rotate(-180.000000) translate(-10.000000, -539.000000) " x="-8.52651283e-14" y="529" width="20" height="20"></rect>
                    <rect id="Rectangle-Copy-815" fill="#47D8D8" transform="translate(70.000000, 516.000000) rotate(-180.000000) translate(-70.000000, -516.000000) " x="60" y="506" width="20" height="20"></rect>
                    <rect id="Rectangle-Copy-816" fill="#2B507D" transform="translate(30.000000, 516.000000) rotate(-180.000000) translate(-30.000000, -516.000000) " x="20" y="506" width="20" height="20"></rect>
                    <rect id="Rectangle-Copy-817" fill="#47D8D8" transform="translate(90.000000, 516.000000) rotate(-180.000000) translate(-90.000000, -516.000000) " x="80" y="506" width="20" height="20"></rect>
                    <rect id="Rectangle-Copy-818" fill="#47D8D8" transform="translate(50.000000, 516.000000) rotate(-180.000000) translate(-50.000000, -516.000000) " x="40" y="506" width="20" height="20"></rect>
                    <rect id="Rectangle-Copy-819" fill="#2B507D" transform="translate(10.000000, 516.000000) rotate(-180.000000) translate(-10.000000, -516.000000) " x="-8.52651283e-14" y="506" width="20" height="20"></rect>
                    <rect id="Rectangle-Copy-820" fill="#47D8D8" transform="translate(70.000000, 493.000000) rotate(-180.000000) translate(-70.000000, -493.000000) " x="60" y="483" width="20" height="20"></rect>
                    <rect id="Rectangle-Copy-821" fill="#2B507D" transform="translate(30.000000, 493.000000) rotate(-180.000000) translate(-30.000000, -493.000000) " x="20" y="483" width="20" height="20"></rect>
                    <rect id="Rectangle-Copy-822" fill="#47D8D8" transform="translate(90.000000, 493.000000) rotate(-180.000000) translate(-90.000000, -493.000000) " x="80" y="483" width="20" height="20"></rect>
                    <rect id="Rectangle-Copy-823" fill="#47D8D8" transform="translate(50.000000, 493.000000) rotate(-180.000000) translate(-50.000000, -493.000000) " x="40" y="483" width="20" height="20"></rect>
                    <rect id="Rectangle-Copy-824" fill="#FFBC9A" transform="translate(10.000000, 493.000000) rotate(-180.000000) translate(-10.000000, -493.000000) " x="-8.52651283e-14" y="483" width="20" height="20"></rect>
                    <rect id="Rectangle-Copy-826" fill="#2B507D" transform="translate(30.000000, 470.000000) rotate(-180.000000) translate(-30.000000, -470.000000) " x="20" y="460" width="20" height="20"></rect>
                    <rect id="Rectangle-Copy-827" fill="#47D8D8" transform="translate(90.000000, 470.000000) rotate(-180.000000) translate(-90.000000, -470.000000) " x="80" y="460" width="20" height="20"></rect>
                    <rect id="Rectangle-Copy-966" fill="#47D8D8" transform="translate(70.000000, 470.000000) rotate(-180.000000) translate(-70.000000, -470.000000) " x="60" y="460" width="20" height="20"></rect>
                    <rect id="Rectangle-Copy-828" fill="#2B507D" transform="translate(50.000000, 470.000000) rotate(-180.000000) translate(-50.000000, -470.000000) " x="40" y="460" width="20" height="20"></rect>
                    <rect id="Rectangle-Copy-829" fill="#FFBC9A" transform="translate(10.000000, 470.000000) rotate(-180.000000) translate(-10.000000, -470.000000) " x="-8.52651283e-14" y="460" width="20" height="20"></rect>
                    <rect id="Rectangle-Copy-830" fill="#47D8D8" transform="translate(70.000000, 447.000000) rotate(-180.000000) translate(-70.000000, -447.000000) " x="60" y="437" width="20" height="20"></rect>
                    <rect id="Rectangle-Copy-831" fill="#FFBC9A" transform="translate(30.000000, 447.000000) rotate(-180.000000) translate(-30.000000, -447.000000) " x="20" y="437" width="20" height="20"></rect>
                    <rect id="Rectangle-Copy-832" fill="#47D8D8" transform="translate(90.000000, 447.000000) rotate(-180.000000) translate(-90.000000, -447.000000) " x="80" y="437" width="20" height="20"></rect>
                    <rect id="Rectangle-Copy-833" fill="#2B507D" transform="translate(50.000000, 447.000000) rotate(-180.000000) translate(-50.000000, -447.000000) " x="40" y="437" width="20" height="20"></rect>
                    <rect id="Rectangle-Copy-834" fill="#FFBC9A" transform="translate(10.000000, 447.000000) rotate(-180.000000) translate(-10.000000, -447.000000) " x="-8.52651283e-14" y="437" width="20" height="20"></rect>
                    <rect id="Rectangle-Copy-835" fill="#2B507D" transform="translate(70.000000, 424.000000) rotate(-180.000000) translate(-70.000000, -424.000000) " x="60" y="414" width="20" height="20"></rect>
                    <rect id="Rectangle-Copy-836" fill="#FFBC9A" transform="translate(30.000000, 424.000000) rotate(-180.000000) translate(-30.000000, -424.000000) " x="20" y="414" width="20" height="20"></rect>
                    <rect id="Rectangle-Copy-837" fill="#47D8D8" transform="translate(90.000000, 424.000000) rotate(-180.000000) translate(-90.000000, -424.000000) " x="80" y="414" width="20" height="20"></rect>
                    <rect id="Rectangle-Copy-838" fill="#2B507D" transform="translate(50.000000, 424.000000) rotate(-180.000000) translate(-50.000000, -424.000000) " x="40" y="414" width="20" height="20"></rect>
                    <rect id="Rectangle-Copy-839" fill="#FFBC9A" transform="translate(10.000000, 424.000000) rotate(-180.000000) translate(-10.000000, -424.000000) " x="-8.52651283e-14" y="414" width="20" height="20"></rect>
                    <rect id="Rectangle-Copy-840" fill="#2B507D" transform="translate(70.000000, 401.000000) rotate(-180.000000) translate(-70.000000, -401.000000) " x="60" y="391" width="20" height="20"></rect>
                    <rect id="Rectangle-Copy-841" fill="#FFBC9A" transform="translate(30.000000, 401.000000) rotate(-180.000000) translate(-30.000000, -401.000000) " x="20" y="391" width="20" height="20"></rect>
                    <rect id="Rectangle-Copy-842" fill="#47D8D8" transform="translate(90.000000, 401.000000) rotate(-180.000000) translate(-90.000000, -401.000000) " x="80" y="391" width="20" height="20"></rect>
                    <rect id="Rectangle-Copy-843" fill="#2B507D" transform="translate(50.000000, 401.000000) rotate(-180.000000) translate(-50.000000, -401.000000) " x="40" y="391" width="20" height="20"></rect>
                    <rect id="Rectangle-Copy-844" fill="#FFBC9A" transform="translate(10.000000, 401.000000) rotate(-180.000000) translate(-10.000000, -401.000000) " x="-8.52651283e-14" y="391" width="20" height="20"></rect>
                    <rect id="Rectangle-Copy-845" fill="#2B507D" transform="translate(70.000000, 378.000000) rotate(-180.000000) translate(-70.000000, -378.000000) " x="60" y="368" width="20" height="20"></rect>
                    <rect id="Rectangle-Copy-846" fill="#FFBC9A" transform="translate(30.000000, 378.000000) rotate(-180.000000) translate(-30.000000, -378.000000) " x="20" y="368" width="20" height="20"></rect>
                    <rect id="Rectangle-Copy-847" fill="#2B507D" transform="translate(90.000000, 378.000000) rotate(-180.000000) translate(-90.000000, -378.000000) " x="80" y="368" width="20" height="20"></rect>
                    <rect id="Rectangle-Copy-848" fill="#2B507D" transform="translate(50.000000, 378.000000) rotate(-180.000000) translate(-50.000000, -378.000000) " x="40" y="368" width="20" height="20"></rect>
                    <rect id="Rectangle-Copy-849" fill="#FFBC9A" transform="translate(10.000000, 378.000000) rotate(-180.000000) translate(-10.000000, -378.000000) " x="-8.52651283e-14" y="368" width="20" height="20"></rect>
                    <rect id="Rectangle-Copy-850" fill="#2B507D" transform="translate(70.000000, 355.000000) rotate(-180.000000) translate(-70.000000, -355.000000) " x="60" y="345" width="20" height="20"></rect>
                    <rect id="Rectangle-Copy-851" fill="#FFBC9A" transform="translate(30.000000, 355.000000) rotate(-180.000000) translate(-30.000000, -355.000000) " x="20" y="345" width="20" height="20"></rect>
                    <rect id="Rectangle-Copy-852" fill="#2B507D" transform="translate(90.000000, 355.000000) rotate(-180.000000) translate(-90.000000, -355.000000) " x="80" y="345" width="20" height="20"></rect>
                    <rect id="Rectangle-Copy-853" fill="#2B507D" transform="translate(50.000000, 355.000000) rotate(-180.000000) translate(-50.000000, -355.000000) " x="40" y="345" width="20" height="20"></rect>
                    <rect id="Rectangle-Copy-854" fill="#FFBC9A" transform="translate(10.000000, 355.000000) rotate(-180.000000) translate(-10.000000, -355.000000) " x="-8.52651283e-14" y="345" width="20" height="20"></rect>
                    <rect id="Rectangle-Copy-855" fill="#2B507D" transform="translate(70.000000, 332.000000) rotate(-180.000000) translate(-70.000000, -332.000000) " x="60" y="322" width="20" height="20"></rect>
                    <rect id="Rectangle-Copy-856" fill="#FFBC9A" transform="translate(30.000000, 332.000000) rotate(-180.000000) translate(-30.000000, -332.000000) " x="20" y="322" width="20" height="20"></rect>
                    <rect id="Rectangle-Copy-857" fill="#2B507D" transform="translate(90.000000, 332.000000) rotate(-180.000000) translate(-90.000000, -332.000000) " x="80" y="322" width="20" height="20"></rect>
                    <rect id="Rectangle-Copy-858" fill="#FFBC9A" transform="translate(50.000000, 332.000000) rotate(-180.000000) translate(-50.000000, -332.000000) " x="40" y="322" width="20" height="20"></rect>
                    <rect id="Rectangle-Copy-859" fill="#FFBC9A" transform="translate(10.000000, 332.000000) rotate(-180.000000) translate(-10.000000, -332.000000) " x="-8.52651283e-14" y="322" width="20" height="20"></rect>
                    <rect id="Rectangle-Copy-860" fill="#FFBC9A" transform="translate(70.000000, 309.000000) rotate(-180.000000) translate(-70.000000, -309.000000) " x="60" y="299" width="20" height="20"></rect>
                    <rect id="Rectangle-Copy-861" fill="#FFBC9A" transform="translate(30.000000, 309.000000) rotate(-180.000000) translate(-30.000000, -309.000000) " x="20" y="299" width="20" height="20"></rect>
                    <rect id="Rectangle-Copy-862" fill="#2B507D" transform="translate(90.000000, 309.000000) rotate(-180.000000) translate(-90.000000, -309.000000) " x="80" y="299" width="20" height="20"></rect>
                    <rect id="Rectangle-Copy-863" fill="#FFBC9A" transform="translate(50.000000, 309.000000) rotate(-180.000000) translate(-50.000000, -309.000000) " x="40" y="299" width="20" height="20"></rect>
                    <rect id="Rectangle-Copy-864" fill="#FFBC9A" transform="translate(10.000000, 309.000000) rotate(-180.000000) translate(-10.000000, -309.000000) " x="-5.68434189e-14" y="299" width="20" height="20"></rect>
                    <rect id="Rectangle-Copy-865" fill="#FFBC9A" transform="translate(70.000000, 286.000000) rotate(-180.000000) translate(-70.000000, -286.000000) " x="60" y="276" width="20" height="20"></rect>
                    <rect id="Rectangle-Copy-866" fill="#FFBC9A" transform="translate(30.000000, 286.000000) rotate(-180.000000) translate(-30.000000, -286.000000) " x="20" y="276" width="20" height="20"></rect>
                    <rect id="Rectangle-Copy-867" fill="#2B507D" transform="translate(90.000000, 286.000000) rotate(-180.000000) translate(-90.000000, -286.000000) " x="80" y="276" width="20" height="20"></rect>
                    <rect id="Rectangle-Copy-868" fill="#FFBC9A" transform="translate(50.000000, 286.000000) rotate(-180.000000) translate(-50.000000, -286.000000) " x="40" y="276" width="20" height="20"></rect>
                    <rect id="Rectangle-Copy-869" fill="#FFBC9A" transform="translate(10.000000, 286.000000) rotate(-180.000000) translate(-10.000000, -286.000000) " x="-5.68434189e-14" y="276" width="20" height="20"></rect>
                    <rect id="Rectangle-Copy-870" fill="#2B507D" transform="translate(70.000000, 263.000000) rotate(-180.000000) translate(-70.000000, -263.000000) " x="60" y="253" width="20" height="20"></rect>
                    <rect id="Rectangle-Copy-871" fill="#FFBC9A" transform="translate(30.000000, 263.000000) rotate(-180.000000) translate(-30.000000, -263.000000) " x="20" y="253" width="20" height="20"></rect>
                    <rect id="Rectangle-Copy-872" fill="#2B507D" transform="translate(90.000000, 263.000000) rotate(-180.000000) translate(-90.000000, -263.000000) " x="80" y="253" width="20" height="20"></rect>
                    <rect id="Rectangle-Copy-873" fill="#FFBC9A" transform="translate(50.000000, 263.000000) rotate(-180.000000) translate(-50.000000, -263.000000) " x="40" y="253" width="20" height="20"></rect>
                    <rect id="Rectangle-Copy-874" fill="#FFBC9A" transform="translate(10.000000, 263.000000) rotate(-180.000000) translate(-10.000000, -263.000000) " x="-5.68434189e-14" y="253" width="20" height="20"></rect>
                    <rect id="Rectangle-Copy-875" fill="#2B507D" transform="translate(70.000000, 240.000000) rotate(-180.000000) translate(-70.000000, -240.000000) " x="60" y="230" width="20" height="20"></rect>
                    <rect id="Rectangle-Copy-876" fill="#FFBC9A" transform="translate(30.000000, 240.000000) rotate(-180.000000) translate(-30.000000, -240.000000) " x="20" y="230" width="20" height="20"></rect>
                    <rect id="Rectangle-Copy-877" fill="#2B507D" transform="translate(90.000000, 240.000000) rotate(-180.000000) translate(-90.000000, -240.000000) " x="80" y="230" width="20" height="20"></rect>
                    <rect id="Rectangle-Copy-878" fill="#FFBC9A" transform="translate(50.000000, 240.000000) rotate(-180.000000) translate(-50.000000, -240.000000) " x="40" y="230" width="20" height="20"></rect>
                    <rect id="Rectangle-Copy-879" fill="#FFBC9A" transform="translate(10.000000, 240.000000) rotate(-180.000000) translate(-10.000000, -240.000000) " x="-5.68434189e-14" y="230" width="20" height="20"></rect>
                    <rect id="Rectangle-Copy-880" fill="#2B507D" transform="translate(70.000000, 217.000000) rotate(-180.000000) translate(-70.000000, -217.000000) " x="60" y="207" width="20" height="20"></rect>
                    <rect id="Rectangle-Copy-881" fill="#FFBC9A" transform="translate(30.000000, 217.000000) rotate(-180.000000) translate(-30.000000, -217.000000) " x="20" y="207" width="20" height="20"></rect>
                    <rect id="Rectangle-Copy-882" fill="#2B507D" transform="translate(90.000000, 217.000000) rotate(-180.000000) translate(-90.000000, -217.000000) " x="80" y="207" width="20" height="20"></rect>
                    <rect id="Rectangle-Copy-883" fill="#FFBC9A" transform="translate(50.000000, 217.000000) rotate(-180.000000) translate(-50.000000, -217.000000) " x="40" y="207" width="20" height="20"></rect>
                    <rect id="Rectangle-Copy-884" fill="#FFBC9A" transform="translate(10.000000, 217.000000) rotate(-180.000000) translate(-10.000000, -217.000000) " x="-5.68434189e-14" y="207" width="20" height="20"></rect>
                    <rect id="Rectangle-Copy-885" fill="#2B507D" transform="translate(70.000000, 194.000000) rotate(-180.000000) translate(-70.000000, -194.000000) " x="60" y="184" width="20" height="20"></rect>
                    <rect id="Rectangle-Copy-886" fill="#FFBC9A" transform="translate(30.000000, 194.000000) rotate(-180.000000) translate(-30.000000, -194.000000) " x="20" y="184" width="20" height="20"></rect>
                    <rect id="Rectangle-Copy-887" fill="#2B507D" transform="translate(90.000000, 194.000000) rotate(-180.000000) translate(-90.000000, -194.000000) " x="80" y="184" width="20" height="20"></rect>
                    <rect id="Rectangle-Copy-888" fill="#2B507D" transform="translate(50.000000, 194.000000) rotate(-180.000000) translate(-50.000000, -194.000000) " x="40" y="184" width="20" height="20"></rect>
                    <rect id="Rectangle-Copy-889" fill="#FFBC9A" transform="translate(10.000000, 194.000000) rotate(-180.000000) translate(-10.000000, -194.000000) " x="-5.68434189e-14" y="184" width="20" height="20"></rect>
                    <rect id="Rectangle-Copy-890" fill="#2B507D" transform="translate(70.000000, 171.000000) rotate(-180.000000) translate(-70.000000, -171.000000) " x="60" y="161" width="20" height="20"></rect>
                    <rect id="Rectangle-Copy-891" fill="#2B507D" transform="translate(30.000000, 171.000000) rotate(-180.000000) translate(-30.000000, -171.000000) " x="20" y="161" width="20" height="20"></rect>
                    <rect id="Rectangle-Copy-892" fill="#2B507D" transform="translate(90.000000, 171.000000) rotate(-180.000000) translate(-90.000000, -171.000000) " x="80" y="161" width="20" height="20"></rect>
                    <rect id="Rectangle-Copy-893" fill="#2B507D" transform="translate(50.000000, 171.000000) rotate(-180.000000) translate(-50.000000, -171.000000) " x="40" y="161" width="20" height="20"></rect>
                    <rect id="Rectangle-Copy-894" fill="#FFBC9A" x="-5.68434189e-14" y="161" width="20" height="20"></rect>
                    <rect id="Rectangle-Copy-895" fill="#2B507D" transform="translate(70.000000, 148.000000) rotate(-180.000000) translate(-70.000000, -148.000000) " x="60" y="138" width="20" height="20"></rect>
                    <rect id="Rectangle-Copy-896" fill="#4AADE2" transform="translate(30.000000, 148.000000) rotate(-180.000000) translate(-30.000000, -148.000000) " x="20" y="138" width="20" height="20"></rect>
                    <rect id="Rectangle-Copy-897" fill="#2B507D" transform="translate(90.000000, 148.000000) rotate(-180.000000) translate(-90.000000, -148.000000) " x="80" y="138" width="20" height="20"></rect>
                    <rect id="Rectangle-Copy-898" fill="#2B507D" transform="translate(50.000000, 148.000000) rotate(-180.000000) translate(-50.000000, -148.000000) " x="40" y="138" width="20" height="20"></rect>
                    <rect id="Rectangle-Copy-899" fill="#4AADE2" x="-5.68434189e-14" y="138" width="20" height="20"></rect>
                    <rect id="Rectangle-Copy-900" fill="#2B507D" transform="translate(70.000000, 125.000000) rotate(-180.000000) translate(-70.000000, -125.000000) " x="60" y="115" width="20" height="20"></rect>
                    <rect id="Rectangle-Copy-901" fill="#4AADE2" transform="translate(30.000000, 125.000000) rotate(-180.000000) translate(-30.000000, -125.000000) " x="20" y="115" width="20" height="20"></rect>
                    <rect id="Rectangle-Copy-902" fill="#2B507D" transform="translate(90.000000, 125.000000) rotate(-180.000000) translate(-90.000000, -125.000000) " x="80" y="115" width="20" height="20"></rect>
                    <rect id="Rectangle-Copy-903" fill="#2B507D" transform="translate(50.000000, 125.000000) rotate(-180.000000) translate(-50.000000, -125.000000) " x="40" y="115" width="20" height="20"></rect>
                    <rect id="Rectangle-Copy-904" fill="#4AADE2" x="-5.68434189e-14" y="115" width="20" height="20"></rect>
                    <rect id="Rectangle-Copy-905" fill="#4AADE2" transform="translate(70.000000, 102.000000) rotate(-180.000000) translate(-70.000000, -102.000000) " x="60" y="92" width="20" height="20"></rect>
                    <rect id="Rectangle-Copy-906" fill="#4AADE2" transform="translate(30.000000, 102.000000) rotate(-180.000000) translate(-30.000000, -102.000000) " x="20" y="92" width="20" height="20"></rect>
                    <rect id="Rectangle-Copy-907" fill="#2B507D" transform="translate(90.000000, 102.000000) rotate(-180.000000) translate(-90.000000, -102.000000) " x="80" y="92" width="20" height="20"></rect>
                    <rect id="Rectangle-Copy-908" fill="#4AADE2" transform="translate(50.000000, 102.000000) rotate(-180.000000) translate(-50.000000, -102.000000) " x="40" y="92" width="20" height="20"></rect>
                    <rect id="Rectangle-Copy-909" fill="#4AADE2" x="-5.68434189e-14" y="92" width="20" height="20"></rect>
                    <rect id="Rectangle-Copy-910" fill="#4AADE2" transform="translate(70.000000, 79.000000) rotate(-180.000000) translate(-70.000000, -79.000000) " x="60" y="69" width="20" height="20"></rect>
                    <rect id="Rectangle-Copy-911" fill="#4AADE2" transform="translate(30.000000, 79.000000) rotate(-180.000000) translate(-30.000000, -79.000000) " x="20" y="69" width="20" height="20"></rect>
                    <rect id="Rectangle-Copy-912" fill="#4AADE2" transform="translate(90.000000, 79.000000) rotate(-180.000000) translate(-90.000000, -79.000000) " x="80" y="69" width="20" height="20"></rect>
                    <rect id="Rectangle-Copy-913" fill="#4AADE2" transform="translate(50.000000, 79.000000) rotate(-180.000000) translate(-50.000000, -79.000000) " x="40" y="69" width="20" height="20"></rect>
                    <rect id="Rectangle-Copy-914" fill="#4AADE2" x="-2.84217094e-14" y="69" width="20" height="20"></rect>
                    <rect id="Rectangle-Copy-915" fill="#4AADE2" transform="translate(70.000000, 56.000000) rotate(-180.000000) translate(-70.000000, -56.000000) " x="60" y="46" width="20" height="20"></rect>
                    <rect id="Rectangle-Copy-916" fill="#4AADE2" transform="translate(30.000000, 56.000000) rotate(-180.000000) translate(-30.000000, -56.000000) " x="20" y="46" width="20" height="20"></rect>
                    <rect id="Rectangle-Copy-917" fill="#4AADE2" transform="translate(90.000000, 56.000000) rotate(-180.000000) translate(-90.000000, -56.000000) " x="80" y="46" width="20" height="20"></rect>
                    <rect id="Rectangle-Copy-918" fill="#4AADE2" transform="translate(50.000000, 56.000000) rotate(-180.000000) translate(-50.000000, -56.000000) " x="40" y="46" width="20" height="20"></rect>
                    <rect id="Rectangle-Copy-919" fill="#4AADE2" x="-2.84217094e-14" y="46" width="20" height="20"></rect>
                    <rect id="Rectangle-Copy-920" fill="#4AADE2" transform="translate(70.000000, 33.000000) rotate(-180.000000) translate(-70.000000, -33.000000) " x="60" y="23" width="20" height="20"></rect>
                    <rect id="Rectangle-Copy-921" fill="#4AADE2" transform="translate(30.000000, 33.000000) rotate(-180.000000) translate(-30.000000, -33.000000) " x="20" y="23" width="20" height="20"></rect>
                    <rect id="Rectangle-Copy-922" fill="#4AADE2" transform="translate(90.000000, 33.000000) rotate(-180.000000) translate(-90.000000, -33.000000) " x="80" y="23" width="20" height="20"></rect>
                    <rect id="Rectangle-Copy-923" fill="#4AADE2" transform="translate(50.000000, 33.000000) rotate(-180.000000) translate(-50.000000, -33.000000) " x="40" y="23" width="20" height="20"></rect>
                    <rect id="Rectangle-Copy-924" fill="#4AADE2" x="-2.84217094e-14" y="23" width="20" height="20"></rect>
                    <rect id="Rectangle-Copy-925" fill="#4AADE2" transform="translate(70.000000, 10.000000) rotate(-180.000000) translate(-70.000000, -10.000000) " x="60" y="0" width="20" height="20"></rect>
                    <rect id="Rectangle-Copy-926" fill="#4AADE2" transform="translate(30.000000, 10.000000) rotate(-180.000000) translate(-30.000000, -10.000000) " x="20" y="0" width="20" height="20"></rect>
                    <rect id="Rectangle-Copy-927" fill="#4AADE2" transform="translate(90.000000, 10.000000) rotate(-180.000000) translate(-90.000000, -10.000000) " x="80" y="0" width="20" height="20"></rect>
                    <rect id="Rectangle-Copy-928" fill="#4AADE2" transform="translate(50.000000, 10.000000) rotate(-180.000000) translate(-50.000000, -10.000000) " x="40" y="0" width="20" height="20"></rect>
                    <rect id="Rectangle-Copy-929" fill="#4AADE2" x="-2.84217094e-14" y="0" width="20" height="20"></rect>
                </g>
                <rect id="Rectangle-Copy-934" fill="#EDEDED" transform="translate(164.000000, 155.000000) rotate(-180.000000) translate(-164.000000, -155.000000) " x="162" y="145" width="4" height="20"></rect>
                <rect id="Rectangle-Copy-940" fill="#EDEDED" transform="translate(164.000000, 385.000000) rotate(-180.000000) translate(-164.000000, -385.000000) " x="162" y="375" width="4" height="20"></rect>
                <rect id="Rectangle-Copy-950" fill="#D7D7D7" transform="translate(164.000000, 615.000000) rotate(-180.000000) translate(-164.000000, -615.000000) " x="162" y="605" width="4" height="20"></rect>
                <rect id="Rectangle-Copy-935" fill="#D7D7D7" transform="translate(164.000000, 270.000000) rotate(-180.000000) translate(-164.000000, -270.000000) " x="162" y="260" width="4" height="20"></rect>
                <rect id="Rectangle-Copy-941" fill="#EDEDED" transform="translate(164.000000, 500.000000) rotate(-180.000000) translate(-164.000000, -500.000000) " x="162" y="490" width="4" height="20"></rect>
                <rect id="Rectangle-Copy-951" fill="#EDEDED" transform="translate(164.000000, 730.000000) rotate(-180.000000) translate(-164.000000, -730.000000) " x="162" y="720" width="4" height="20"></rect>
                <rect id="Rectangle-Copy-960" fill="#D7D7D7" transform="translate(164.000000, 753.000000) rotate(-180.000000) translate(-164.000000, -753.000000) " x="162" y="743" width="4" height="20"></rect>
                <rect id="Rectangle-Copy-961" fill="#EDEDED" transform="translate(164.000000, 40.000000) rotate(-180.000000) translate(-164.000000, -40.000000) " x="162" y="30" width="4" height="20"></rect>
                <rect id="Rectangle-Copy-930" fill="#D7D7D7" transform="translate(164.000000, 132.000000) rotate(-180.000000) translate(-164.000000, -132.000000) " x="162" y="122" width="4" height="20"></rect>
                <rect id="Rectangle-Copy-942" fill="#EDEDED" transform="translate(164.000000, 362.000000) rotate(-180.000000) translate(-164.000000, -362.000000) " x="162" y="352" width="4" height="20"></rect>
                <rect id="Rectangle-Copy-952" fill="#EDEDED" transform="translate(164.000000, 592.000000) rotate(-180.000000) translate(-164.000000, -592.000000) " x="162" y="582" width="4" height="20"></rect>
                <rect id="Rectangle-Copy-936" fill="#EDEDED" transform="translate(164.000000, 247.000000) rotate(-180.000000) translate(-164.000000, -247.000000) " x="162" y="237" width="4" height="20"></rect>
                <rect id="Rectangle-Copy-943" fill="#D7D7D7" transform="translate(164.000000, 477.000000) rotate(-180.000000) translate(-164.000000, -477.000000) " x="162" y="467" width="4" height="20"></rect>
                <rect id="Rectangle-Copy-953" fill="#EDEDED" transform="translate(164.000000, 707.000000) rotate(-180.000000) translate(-164.000000, -707.000000) " x="162" y="697" width="4" height="20"></rect>
                <rect id="Rectangle-Copy-931" fill="#EDEDED" transform="translate(164.000000, 109.000000) rotate(-180.000000) translate(-164.000000, -109.000000) " x="162" y="99" width="4" height="20"></rect>
                <rect id="Rectangle-Copy-944" fill="#D7D7D7" transform="translate(164.000000, 339.000000) rotate(-180.000000) translate(-164.000000, -339.000000) " x="162" y="329" width="4" height="20"></rect>
                <rect id="Rectangle-Copy-954" fill="#EDEDED" transform="translate(164.000000, 569.000000) rotate(-180.000000) translate(-164.000000, -569.000000) " x="162" y="559" width="4" height="20"></rect>
                <rect id="Rectangle-Copy-937" fill="#EDEDED" transform="translate(164.000000, 224.000000) rotate(-180.000000) translate(-164.000000, -224.000000) " x="162" y="214" width="4" height="20"></rect>
                <rect id="Rectangle-Copy-945" fill="#EDEDED" transform="translate(164.000000, 454.000000) rotate(-180.000000) translate(-164.000000, -454.000000) " x="162" y="444" width="4" height="20"></rect>
                <rect id="Rectangle-Copy-955" fill="#D7D7D7" transform="translate(164.000000, 684.000000) rotate(-180.000000) translate(-164.000000, -684.000000) " x="162" y="674" width="4" height="20"></rect>
                <rect id="Rectangle-Copy-932" fill="#EDEDED" transform="translate(164.000000, 86.000000) rotate(-180.000000) translate(-164.000000, -86.000000) " x="162" y="76" width="4" height="20"></rect>
                <rect id="Rectangle-Copy-946" fill="#EDEDED" transform="translate(164.000000, 316.000000) rotate(-180.000000) translate(-164.000000, -316.000000) " x="162" y="306" width="4" height="20"></rect>
                <rect id="Rectangle-Copy-956" fill="#D7D7D7" transform="translate(164.000000, 546.000000) rotate(-180.000000) translate(-164.000000, -546.000000) " x="162" y="536" width="4" height="20"></rect>
                <rect id="Rectangle-Copy-938" fill="#D7D7D7" transform="translate(164.000000, 201.000000) rotate(-180.000000) translate(-164.000000, -201.000000) " x="162" y="191" width="4" height="20"></rect>
                <rect id="Rectangle-Copy-947" fill="#EDEDED" transform="translate(164.000000, 431.000000) rotate(-180.000000) translate(-164.000000, -431.000000) " x="162" y="421" width="4" height="20"></rect>
                <rect id="Rectangle-Copy-957" fill="#EDEDED" transform="translate(164.000000, 661.000000) rotate(-180.000000) translate(-164.000000, -661.000000) " x="162" y="651" width="4" height="20"></rect>
                <rect id="Rectangle-Copy-933" fill="#D7D7D7" transform="translate(164.000000, 63.000000) rotate(-180.000000) translate(-164.000000, -63.000000) " x="162" y="53" width="4" height="20"></rect>
                <rect id="Rectangle-Copy-948" fill="#EDEDED" transform="translate(164.000000, 293.000000) rotate(-180.000000) translate(-164.000000, -293.000000) " x="162" y="283" width="4" height="20"></rect>
                <rect id="Rectangle-Copy-958" fill="#EDEDED" transform="translate(164.000000, 523.000000) rotate(-180.000000) translate(-164.000000, -523.000000) " x="162" y="513" width="4" height="20"></rect>
                <rect id="Rectangle-Copy-939" fill="#EDEDED" transform="translate(164.000000, 178.000000) rotate(-180.000000) translate(-164.000000, -178.000000) " x="162" y="168" width="4" height="20"></rect>
                <rect id="Rectangle-Copy-949" fill="#D7D7D7" transform="translate(164.000000, 408.000000) rotate(-180.000000) translate(-164.000000, -408.000000) " x="162" y="398" width="4" height="20"></rect>
                <rect id="Rectangle-Copy-959" fill="#EDEDED" transform="translate(164.000000, 638.000000) rotate(-180.000000) translate(-164.000000, -638.000000) " x="162" y="628" width="4" height="20"></rect>
                <rect id="Rectangle-Copy-962" stroke="#FFFFFF" stroke-width="2" fill="#47D8D8" transform="translate(164.000000, 316.000000) rotate(-180.000000) translate(-164.000000, -316.000000) " x="159" y="311" width="10" height="10"></rect>
                <rect id="Rectangle-Copy-967" stroke="#FFFFFF" stroke-width="2" fill="#A68AFF" transform="translate(164.000000, 86.000000) rotate(-180.000000) translate(-164.000000, -86.000000) " x="159" y="81" width="10" height="10"></rect>
                <g id="Group-7" transform="translate(43.000000, 488.000000)" fill="#FFBC9A">
                    <rect id="Rectangle-Copy-963" stroke="#FFFFFF" stroke-width="2" transform="translate(121.000000, 12.000000) rotate(-180.000000) translate(-121.000000, -12.000000) " x="116" y="7" width="10" height="10"></rect>
                    <text id="UI-Development" font-family="PTSans-Bold, PT Sans" font-size="16" font-weight="bold">
                        <tspan x="0.208" y="14">UI Development</tspan>
                    </text>
                </g>
                <rect id="Rectangle-Copy-964" stroke="#FFFFFF" stroke-width="2" fill="#2B507D" transform="translate(164.000000, 592.000000) rotate(-180.000000) translate(-164.000000, -592.000000) " x="159" y="587" width="10" height="10"></rect>
                <g id="Group-3" transform="translate(50.000000, 696.000000)" fill="#4AADE2">
                    <rect id="Rectangle-Copy-965" stroke="#FFFFFF" stroke-width="2" transform="translate(114.000000, 11.000000) rotate(-180.000000) translate(-114.000000, -11.000000) " x="109" y="6" width="10" height="10"></rect>
                    <text id="Graphic-Design-Copy-9" font-family="PTSans-Bold, PT Sans" font-size="16" font-weight="bold">
                        <tspan x="0.616" y="14">Graphic Design</tspan>
                    </text>
                </g>
                <text id="2019" font-family="PTSans-Regular, PT Sans" font-size="12" font-weight="normal" fill="#232323">
                    <tspan x="126.84" y="66">2019</tspan>
                </text>
                <text id="2018" font-family="PTSans-Regular, PT Sans" font-size="12" font-weight="normal" fill="#232323">
                    <tspan x="126.84" y="137">2018</tspan>
                </text>
                <text id="2017" font-family="PTSans-Regular, PT Sans" font-size="12" font-weight="normal" fill="#232323">
                    <tspan x="126.84" y="208">2017</tspan>
                </text>
                <text id="2016" font-family="PTSans-Regular, PT Sans" font-size="12" font-weight="normal" fill="#232323">
                    <tspan x="126.84" y="273">2016</tspan>
                </text>
                <text id="2015" font-family="PTSans-Regular, PT Sans" font-size="12" font-weight="normal" fill="#232323">
                    <tspan x="126.84" y="343">2015</tspan>
                </text>
                <text id="2014" font-family="PTSans-Regular, PT Sans" font-size="12" font-weight="normal" fill="#232323">
                    <tspan x="126.84" y="411">2014</tspan>
                </text>
                <text id="2013" font-family="PTSans-Regular, PT Sans" font-size="12" font-weight="normal" fill="#232323">
                    <tspan x="126.84" y="480">2013</tspan>
                </text>
                <text id="2012" font-family="PTSans-Regular, PT Sans" font-size="12" font-weight="normal" fill="#232323">
                    <tspan x="126.84" y="549">2012</tspan>
                </text>
                <text id="2011" font-family="PTSans-Regular, PT Sans" font-size="12" font-weight="normal" fill="#232323">
                    <tspan x="126.84" y="619">2011</tspan>
                </text>
                <text id="2010" font-family="PTSans-Regular, PT Sans" font-size="12" font-weight="normal" fill="#232323">
                    <tspan x="126.84" y="687">2010</tspan>
                </text>
                <text id="2009" font-family="PTSans-Regular, PT Sans" font-size="12" font-weight="normal" fill="#232323">
                    <tspan x="126.84" y="751">2009</tspan>
                </text>
                <text id="Visual-&amp;-UI-Design" font-family="PTSans-Bold, PT Sans" font-size="16" font-weight="bold" fill="#2B507D">
                    <tspan x="24.472" y="595">Visual &amp; UI Design</tspan>
                </text>
                <text id="UX-Design-&amp;-Research" font-family="PTSans-Bold, PT Sans" font-size="16" font-weight="bold" fill="#47D8D8">
                    <tspan x="0.248" y="318">UX Design &amp; Research</tspan>
                </text>
                <text id="Product-Design-&amp;-Ops" font-family="PTSans-Bold, PT Sans" font-size="16" font-weight="bold" fill="#A68AFF">
                    <tspan x="2.456" y="90">Product Design &amp; Ops</tspan>
                </text>
                <path d="M179.491538,21.5 L297.5,21.5" id="Line-4" stroke="#D7D7D7" stroke-linecap="square"></path>
                <polygon id="Rectangle-4" fill="#D7D7D7" transform="translate(182.439340, 21.439340) rotate(-315.000000) translate(-182.439340, -21.439340) " points="179.300253 18.3002525 185.578427 24.5784271 179.300253 24.5784271"></polygon>
                <polygon id="Rectangle-4" fill="#D7D7D7" transform="translate(294.439340, 21.439340) rotate(-135.000000) translate(-294.439340, -21.439340) " points="291.300253 18.3002525 297.578427 24.5784271 291.300253 24.5784271"></polygon>
                <text id="FOCUS" font-family="PTSans-Regular, PT Sans" font-size="12" font-weight="normal" fill="#232323">
                    <tspan x="222" y="11">FOCUS</tspan>
                </text>
            </g>
        </g>
    </g>
</svg>