<?xml version="1.0" encoding="UTF-8"?>
<svg width="38px" height="102px" viewBox="0 0 38 102" version="1.1" xmlns="http://www.w3.org/2000/svg" xmlns:xlink="http://www.w3.org/1999/xlink">
    <!-- Generator: Sketch 52.5 (67469) - http://www.bohemiancoding.com/sketch -->
    <title>Group 4</title>
    <desc>Created with Sketch.</desc>
    <g id="Visual-playground" stroke="none" stroke-width="1" fill="none" fill-rule="evenodd">
        <g id="Home-Full-HD-Copy" transform="translate(-936.000000, -766.000000)">
            <g id="Group-4" transform="translate(936.000000, 766.000000)">
                <ellipse id="Oval-7-Copy-4" fill="#62DCDC" cx="7" cy="54.5" rx="7" ry="12.5"></ellipse>
                <ellipse id="Oval-7-Copy-5" fill="#62DCDC" cx="31" cy="54.5" rx="7" ry="12.5"></ellipse>
                <ellipse id="Oval-7" fill="#F5F5F5" cx="17.5" cy="39.5" rx="12.5" ry="39.5"></ellipse>
                <circle id="Oval-8" fill="#D8D8D8" cx="17.5" cy="24.5" r="4.5"></circle>
                <ellipse id="Oval-7-Copy" fill="#DDDDDD" cx="17.5" cy="67.5" rx="2.5" ry="15.5"></ellipse>
                <rect id="Rectangle-7" fill="#72E0E0" x="11" y="81" width="3" height="13" rx="1.5"></rect>
                <rect id="Rectangle-7-Copy" fill="#72E0E0" x="16" y="88" width="3" height="14" rx="1.5"></rect>
                <path d="M22.5,83 L22.5,83 C23.3284271,83 24,83.6715729 24,84.5 L24,95.5 C24,96.3284271 23.3284271,97 22.5,97 L22.5,97 C21.6715729,97 21,96.3284271 21,95.5 L21,84.5 C21,83.6715729 21.6715729,83 22.5,83 Z" id="Rectangle-7-Copy-2" fill="#72E0E0"></path>
            </g>
        </g>
    </g>
</svg>