<?xml version="1.0" encoding="UTF-8"?>
<svg width="105px" height="105px" viewBox="0 0 105 105" version="1.1" xmlns="http://www.w3.org/2000/svg" xmlns:xlink="http://www.w3.org/1999/xlink">
    <!-- Generator: Sketch 52.5 (67469) - http://www.bohemiancoding.com/sketch -->
    <title>Home Full HD Copy</title>
    <desc>Created with Sketch.</desc>
    <g id="Visual-playground" stroke="none" stroke-width="1" fill="none" fill-rule="evenodd">
        <g id="Home-Full-HD-Copy" transform="translate(-902.000000, -336.000000)">
            <g id="Group-26" transform="translate(880.000000, 314.000000)">
                <g id="Group-18" transform="translate(45.000000, 45.000000)">
                    <g id="Group">
                        <circle id="Oval-5" fill="#73E3E2" transform="translate(29.500000, 29.500000) rotate(-360.000000) translate(-29.500000, -29.500000) " cx="29.5" cy="29.5" r="29.5"></circle>
                        <circle id="Oval-5" fill="#FFFFFF" cx="29.5" cy="29.5" r="19.5"></circle>
                        <circle id="Oval-5" fill="#E9E9E9" cx="29.5" cy="29.5" r="10.5"></circle>
                    </g>
                </g>
                <g id="Group-25" transform="translate(22.000000, 22.000000)" fill="#E9E9E9" fill-rule="nonzero">
                    <g id="Group-24" transform="translate(46.000000, 0.000000)">
                        <rect id="Rectangle" transform="translate(6.363961, 6.363961) rotate(-45.000000) translate(-6.363961, -6.363961) " x="1.86396103" y="1.86396103" width="9" height="9"></rect>
                        <rect id="Rectangle-Copy" transform="translate(6.363961, 98.636039) rotate(-45.000000) translate(-6.363961, -98.636039) " x="1.86396103" y="94.136039" width="9" height="9"></rect>
                    </g>
                    <g id="Group-24" transform="translate(52.500000, 52.500000) rotate(-270.000000) translate(-52.500000, -52.500000) translate(46.000000, 0.000000)">
                        <rect id="Rectangle" transform="translate(6.363961, 6.363961) rotate(-45.000000) translate(-6.363961, -6.363961) " x="1.86396103" y="1.86396103" width="9" height="9"></rect>
                        <rect id="Rectangle-Copy" transform="translate(6.363961, 98.636039) rotate(-45.000000) translate(-6.363961, -98.636039) " x="1.86396103" y="94.136039" width="9" height="9"></rect>
                    </g>
                </g>
                <g id="Group-25" transform="translate(74.500000, 74.500000) rotate(-315.000000) translate(-74.500000, -74.500000) translate(22.000000, 22.000000)" fill="#E9E9E9" fill-rule="nonzero">
                    <g id="Group-24" transform="translate(46.000000, 0.000000)">
                        <rect id="Rectangle" transform="translate(6.363961, 6.363961) rotate(-45.000000) translate(-6.363961, -6.363961) " x="1.86396103" y="1.86396103" width="9" height="9"></rect>
                        <rect id="Rectangle-Copy" transform="translate(6.363961, 98.636039) rotate(-45.000000) translate(-6.363961, -98.636039) " x="1.86396103" y="94.136039" width="9" height="9"></rect>
                    </g>
                    <g id="Group-24" transform="translate(52.500000, 52.500000) rotate(-270.000000) translate(-52.500000, -52.500000) translate(46.000000, 0.000000)">
                        <rect id="Rectangle" transform="translate(6.363961, 6.363961) rotate(-45.000000) translate(-6.363961, -6.363961) " x="1.86396103" y="1.86396103" width="9" height="9"></rect>
                        <rect id="Rectangle-Copy" transform="translate(6.363961, 98.636039) rotate(-45.000000) translate(-6.363961, -98.636039) " x="1.86396103" y="94.136039" width="9" height="9"></rect>
                    </g>
                </g>
            </g>
        </g>
    </g>
</svg>