<?xml version="1.0" encoding="UTF-8"?>
<svg width="77px" height="97px" viewBox="0 0 77 97" version="1.1" xmlns="http://www.w3.org/2000/svg" xmlns:xlink="http://www.w3.org/1999/xlink">
    <!-- Generator: Sketch 52.5 (67469) - http://www.bohemiancoding.com/sketch -->
    <title>Group 21</title>
    <desc>Created with Sketch.</desc>
    <g id="Visual-playground" stroke="none" stroke-width="1" fill="none" fill-rule="evenodd">
        <g id="Home-Full-HD-Copy" transform="translate(-870.000000, -3572.000000)">
            <g id="Group-21" transform="translate(870.000000, 3572.500000)">
                <g id="Group-29" transform="translate(0.000000, 17.000000)">
                    <g id="Group-28" transform="translate(0.000000, 40.634921)">
                        <path d="M56.8032787,38.0952381 C56.8032787,24.445427 46.630601,30.5817678 34.0819672,30.5817678 C21.5333334,30.5817678 11.3606557,24.445427 11.3606557,38.0952381 L56.8032787,38.0952381 Z" id="Oval-4" fill="#E1E1E1" transform="translate(34.081967, 33.650794) rotate(-360.000000) translate(-34.081967, -33.650794) "></path>
                        <ellipse id="Oval-2" fill="#E1E1E1" cx="66.2704918" cy="13.3333333" rx="9.46721311" ry="9.52380952"></ellipse>
                        <path d="M66.9016393,33.015873 C66.9016393,14.7817098 51.9251972,0 33.4508197,0 C14.9764421,0 0,14.7817098 0,33.015873 L66.9016393,33.015873 Z" id="Oval-4" fill="#F0EFEF" transform="translate(33.450820, 16.507937) rotate(-180.000000) translate(-33.450820, -16.507937) "></path>
                    </g>
                    <rect id="Rectangle-5" fill="#63DFDF" x="22.7213115" y="16.5079365" width="5.04918033" height="17.7777778" rx="2.52459016"></rect>
                    <rect id="Rectangle-5-Copy" fill="#63DFDF" x="31.557377" y="0" width="5.04918033" height="34.2857143" rx="2.52459016"></rect>
                    <rect id="Rectangle-5-Copy-2" fill="#63DFDF" x="40.3934426" y="24.1269841" width="5.04918033" height="10.1587302" rx="2.52459016"></rect>
                </g>
                <circle id="Oval-17" fill="#F0EFEF" cx="72.5" cy="35.5" r="4.5"></circle>
                <circle id="Oval-17-Copy-2" fill="#E1E1E1" cx="16.5" cy="44.5" r="1.5"></circle>
                <circle id="Oval-17-Copy" fill="#F0EFEF" cx="22" cy="2" r="2"></circle>
            </g>
        </g>
    </g>
</svg>