<?xml version="1.0" encoding="UTF-8"?>
<svg width="111px" height="105px" viewBox="0 0 111 105" version="1.1" xmlns="http://www.w3.org/2000/svg" xmlns:xlink="http://www.w3.org/1999/xlink">
    <!-- Generator: Sketch 52.6 (67491) - http://www.bohemiancoding.com/sketch -->
    <title>Group 18</title>
    <desc>Created with Sketch.</desc>
    <g id="Visual-playground" stroke="none" stroke-width="1" fill="none" fill-rule="evenodd">
        <g id="Home-Full-HD-Copy-6" transform="translate(-826.000000, -318.000000)">
            <g id="Group-18" transform="translate(826.000000, 318.000000)">
                <circle id="Oval-5" fill="#52DBDB" transform="translate(56.500000, 54.500000) rotate(-1.000000) translate(-56.500000, -54.500000) " cx="56.5" cy="54.5" r="30.5"></circle>
                <ellipse id="Oval-5" fill="#FFFFFF" cx="56.5002721" cy="54.5" rx="21.5002721" ry="21.5"></ellipse>
                <circle id="Oval-5" fill="#EFEFEF" cx="56.5" cy="54.5" r="10.5"></circle>
                <circle id="Oval-5-Copy" fill="#EFEFEF" cx="56.5" cy="7.5" r="7.5"></circle>
                <circle id="Oval-5-Copy-2" fill="#EFEFEF" cx="56.5" cy="100.5" r="4.5"></circle>
                <circle id="Oval-5-Copy" fill="#EFEFEF" transform="translate(104.000000, 54.000000) rotate(-270.000000) translate(-104.000000, -54.000000) " cx="104" cy="54" r="7"></circle>
                <circle id="Oval-5-Copy-2" fill="#EFEFEF" transform="translate(9.500000, 53.500000) rotate(-270.000000) translate(-9.500000, -53.500000) " cx="9.5" cy="53.5" r="9.5"></circle>
                <circle id="Oval-5-Copy" fill="#EFEFEF" transform="translate(89.918605, 20.914634) rotate(-315.000000) translate(-89.918605, -20.914634) " cx="89.9186047" cy="20.9146341" r="4.71387801"></circle>
                <circle id="Oval-5-Copy-2" fill="#EFEFEF" transform="translate(23.662791, 86.646341) rotate(-315.000000) translate(-23.662791, -86.646341) " cx="23.6627907" cy="86.6463415" r="7.2850842"></circle>
                <circle id="Oval-5-Copy" fill="#EFEFEF" transform="translate(90.779070, 87.500000) rotate(-585.000000) translate(-90.779070, -87.500000) " cx="90.7790698" cy="87.5" r="9.85629039"></circle>
                <circle id="Oval-5-Copy-2" fill="#EFEFEF" transform="translate(24.093023, 21.341463) rotate(-585.000000) translate(-24.093023, -21.341463) " cx="24.0930233" cy="21.3414634" r="4.28534365"></circle>
            </g>
        </g>
    </g>
</svg>