<?xml version="1.0" encoding="UTF-8"?>
<svg width="19px" height="20px" viewBox="0 0 19 20" version="1.1" xmlns="http://www.w3.org/2000/svg" xmlns:xlink="http://www.w3.org/1999/xlink">
    <!-- Generator: Sketch 52.6 (67491) - http://www.bohemiancoding.com/sketch -->
    <title>external</title>
    <desc>Created with Sketch.</desc>
    <g id="Visual-playground" stroke="none" stroke-width="1" fill="none" fill-rule="evenodd">
        <g id="Home-Full-HD-Copy-6" transform="translate(-746.000000, -1540.000000)" fill-rule="nonzero" stroke="#52DBDB" stroke-width="3">
            <g id="Group-19" transform="translate(600.000000, 1400.000000)">
                <g id="external" transform="translate(148.000000, 142.000000)">
                    <path d="M5.33429931,4.52970994e-13 L3,4.53415083e-13 C1.34314575,4.53719442e-13 -2.42335217e-15,1.34314575 -2.22044605e-15,3 L-2.66453526e-15,12.9953681 C-2.46162913e-15,14.6522223 1.34314575,15.9953681 3,15.9953681 L12.344921,15.9953681 C14.0017753,15.9953681 15.344921,14.6522223 15.344921,12.9953681 L15.344921,10.7272484" id="Path-5"></path>
                    <path d="M9,-2.93098879e-13 L14.3717546,-2.93098879e-13 C14.9240393,-2.93690859e-13 15.3717546,0.44771525 15.3717546,1 L15.3717546,6.43763042" id="Path-7"></path>
                    <path d="M7.67246052,7.48316218 L14.6832076,0.472415083" id="Path-8"></path>
                </g>
            </g>
        </g>
    </g>
</svg>