<?xml version="1.0" encoding="UTF-8"?>
<svg width="24px" height="21px" viewBox="0 0 24 21" version="1.1" xmlns="http://www.w3.org/2000/svg" xmlns:xlink="http://www.w3.org/1999/xlink">
    <!-- Generator: Sketch 52.5 (67469) - http://www.bohemiancoding.com/sketch -->
    <title>Combined Shape</title>
    <desc>Created with Sketch.</desc>
    <g id="Visual-playground" stroke="none" stroke-width="1" fill="none" fill-rule="evenodd">
        <g id="Home-Full-HD-Copy-5" transform="translate(-1008.000000, -5741.000000)" fill="#2B3E56">
            <path d="M1031.92662,5744.84243 C1031.96147,5744.87088 1031.97294,5744.92114 1031.94886,5744.96192 L1024.67323,5757.18458 L1019.44251,5748.39727 L1023.61053,5741.39475 C1023.76005,5741.14391 1024.03593,5741 1024.31318,5741 C1024.38015,5741 1024.44688,5741.01067 1024.51224,5741.02798 C1024.5643,5741.04173 1024.61567,5741.0588 1024.66451,5741.08417 L1031.90437,5744.82654 L1031.91263,5744.83081 C1031.91836,5744.83366 1031.92203,5744.83864 1031.92662,5744.84243 Z M1017.14671,5746.80217 L1023.99992,5758.31571 L1017.14671,5754.77319 L1017.14671,5746.80217 Z M1025.0296,5758.84796 L1032,5747.13788 L1032,5761.17068 C1032,5761.87766 1031.4049,5762.14344 1030.67082,5761.76386 L1025.0296,5758.84796 Z M1015.95696,5744.85381 C1015.98334,5744.86732 1016.00008,5744.8953 1016.00008,5744.92565 L1016.00008,5761.17068 C1016.00008,5761.69037 1015.72855,5762 1015.34145,5762 C1015.20408,5762 1015.05204,5761.96088 1014.89243,5761.87838 L1008.66459,5758.65924 C1008.29904,5758.47029 1008,5757.97004 1008,5757.54755 L1008,5741.76483 C1008,5741.34923 1008.21717,5741.10147 1008.52676,5741.10147 C1008.63684,5741.10147 1008.75838,5741.13277 1008.88612,5741.19868 L1015.95696,5744.85381 Z" id="Combined-Shape"></path>
        </g>
    </g>
</svg>