<?xml version="1.0" encoding="UTF-8"?>
<svg width="360px" height="592px" viewBox="0 0 360 592" version="1.1" xmlns="http://www.w3.org/2000/svg" xmlns:xlink="http://www.w3.org/1999/xlink">
    <!-- Generator: Sketch 52.5 (67469) - http://www.bohemiancoding.com/sketch -->
    <title>Project: Ticketmaster</title>
    <desc>Created with Sketch.</desc>
    <g id="Case-studies" stroke="none" stroke-width="1" fill="none" fill-rule="evenodd">
        <g id="Project:-Ticketmaster" transform="translate(-390.000000, -99.000000)" fill="#FFFFFF">
            <g id="Logo-Copy" transform="translate(402.000000, 286.000000)">
                <path d="M121.245623,60.1097133 C122.403316,54.571705 123.561009,48.7514194 124.432794,44.315636 L160.663427,44.315636 L157.185661,63.4343102 L157.762163,63.4343102 C168.195461,48.7514194 185.293694,41 203.549621,41 C221.233734,41 239.489659,50.969311 241.519139,68.1478903 L242.100329,68.1478903 C251.952432,49.584809 273.690815,41 294.55741,41 C316.872286,41 336,58.4474144 336,80.0617768 C336,92.8045726 332.526919,107.218628 329.339749,118.850238 L313.685116,187 L274.848506,187 L290.503139,117.456774 C292.52793,108.871965 295.429191,95.5690964 295.429191,86.9842872 C295.429191,76.4593831 287.02537,69.8057081 277.168577,69.8057081 C250.208862,69.8057081 243.54393,99.7270829 238.622559,119.128034 L223.258525,187 L184.426597,187 L200.076542,117.456774 C202.106021,108.871965 205.007283,95.5690964 205.007283,86.9842872 C205.007283,76.4593831 196.598777,69.8057081 186.741983,69.8057081 C160.368144,69.8057081 153.117331,100.00488 148.195964,119.128034 L132.831927,187 L94,187 L121.245623,60.1097133" id="Fill-9"></path>
                <path d="M6.03773423,42.7498871 L33.9424859,42.7498871 L40.5570145,13.1353897 L81.9745684,0 L72.4807202,42.7498871 L107,42.7498871 L100.957615,70.132227 L66.4383344,70.132227 L52.3487373,132.998644 C51.4835458,136.3514 50.6230059,141.385051 50.6230059,146.965446 C50.6230059,155.632001 56.6653917,160.936764 65.2940488,160.936764 C72.1969746,160.936764 79.0998999,159.540536 83.9933486,157.584009 L77.3741689,186.642727 C70.7549887,188.038955 63.2799202,190 56.6653917,190 C30.491023,190 12.08012,179.941735 12.08012,152.274727 C12.08012,141.104901 14.3826458,130.206188 16.9689172,118.756213 L27.9001001,70.132227 L0,70.132227 L6.03773423,42.7498871" id="Fill-3"></path>
            </g>
        </g>
    </g>
</svg>