<?xml version="1.0" encoding="UTF-8"?>
<svg width="248px" height="192px" viewBox="0 0 248 192" version="1.1" xmlns="http://www.w3.org/2000/svg" xmlns:xlink="http://www.w3.org/1999/xlink">
    <!-- Generator: Sketch 52.6 (67491) - http://www.bohemiancoding.com/sketch -->
    <title>Group 32</title>
    <desc>Created with Sketch.</desc>
    <g id="Visual-playground" stroke="none" stroke-width="1" fill="none" fill-rule="evenodd">
        <g id="Home-Full-HD-Copy-6" transform="translate(-945.000000, -3952.000000)" fill="#D8D8D8">
            <g id="Group-10" transform="translate(736.000000, 3952.000000)">
                <g id="Group-13">
                    <g id="Group-36" transform="translate(137.000000, 0.000000)">
                        <g id="Group-32" transform="translate(72.000000, -34.000000)">
                            <path d="M184.569955,142.490329 L123.312803,157.32117 L122,152.214713 L184.330693,137.123959 C184.321653,136.583719 184.317115,136.042388 184.317115,135.5 C184.317115,82.7568064 227.226791,40 280.158558,40 C333.090325,40 376,82.7568064 376,135.5 C376,188.243194 333.090325,231 280.158558,231 C229.586116,231 188.162248,191.96984 184.569955,142.490335 Z" id="Combined-Shape"></path>
                            <path d="M131.09065,137.705258 L146.295005,86.8394273 C145.743309,86.7604461 145.210748,86.6226848 144.703964,86.4327409 L129.590311,136.89237 C130.104511,137.140301 130.605096,137.411732 131.09065,137.705258 Z M133.111841,139.123761 C137.181241,142.415179 139.780488,147.430972 139.780488,153.049724 C139.780488,162.963388 131.688854,171 121.707317,171 C111.72578,171 103.634146,162.963388 103.634146,153.049724 C103.634146,143.13606 111.72578,135.099448 121.707317,135.099448 C124.03841,135.099448 126.266426,135.537774 128.312369,136.335968 L143.44237,85.8217584 C141.246899,84.4959385 139.780488,82.0976121 139.780488,79.359116 C139.780488,78.344788 139.981669,77.377129 140.346564,76.4933533 L98.1549969,50.6316366 C92.2743551,59.4059782 82.2255506,65.1878453 70.8170732,65.1878453 C52.6927041,65.1878453 38,50.5950491 38,32.5939227 C38,14.5927962 52.6927041,0 70.8170732,0 C88.9414422,0 103.634146,14.5927962 103.634146,32.5939227 C103.634146,38.5231407 102.040114,44.0825841 99.2544611,48.8725765 L141.395372,74.7032432 C142.788305,72.9365107 144.955773,71.801105 147.390244,71.801105 C151.592996,71.801105 155,75.1849418 155,79.359116 C155,83.0712351 152.305518,86.1583036 148.753107,86.7962571 L133.111841,139.123761 Z" id="Combined-Shape"></path>
                            <circle id="Oval" fill-rule="nonzero" cx="182" cy="210" r="5"></circle>
                            <circle id="Oval-Copy-4" fill-rule="nonzero" cx="13.5" cy="88.5" r="13.5"></circle>
                            <circle id="Oval-Copy-5" fill-rule="nonzero" cx="194" cy="54" r="3"></circle>
                        </g>
                    </g>
                </g>
            </g>
        </g>
    </g>
</svg>