<?xml version="1.0" encoding="UTF-8"?>
<svg width="217px" height="174px" viewBox="0 0 217 174" version="1.1" xmlns="http://www.w3.org/2000/svg" xmlns:xlink="http://www.w3.org/1999/xlink">
    <!-- Generator: Sketch 52.5 (67469) - http://www.bohemiancoding.com/sketch -->
    <title>Group 35</title>
    <desc>Created with Sketch.</desc>
    <defs>
        <rect id="path-1" x="0" y="0" width="274" height="181"></rect>
        <linearGradient x1="31.4376131%" y1="1.20750568%" x2="31.4376066%" y2="100%" id="linearGradient-3">
            <stop stop-color="#3B6FC2" stop-opacity="0.75" offset="0%"></stop>
            <stop stop-color="#009CDE" offset="100%"></stop>
            <stop stop-color="#009CDE" offset="100%"></stop>
        </linearGradient>
    </defs>
    <g id="Visual-playground" stroke="none" stroke-width="1" fill="none" fill-rule="evenodd">
        <g id="Home-Full-HD-Copy" transform="translate(-978.000000, -4336.000000)">
            <g id="Group-35" transform="translate(921.000000, 4336.000000)">
                <mask id="mask-2" fill="white">
                    <use xlink:href="#path-1"></use>
                </mask>
                <g id="Rectangle" fill-rule="nonzero"></g>
                <g id="Group-31" mask="url(#mask-2)">
                    <g transform="translate(17.000000, -182.000000)" id="Group-27">
                        <g transform="translate(196.996735, 197.402327) rotate(-45.000000) translate(-196.996735, -197.402327) translate(26.496735, 89.402327)">
                            <g id="Group-34">
                                <g id="Group-33" transform="translate(-0.000000, 0.000000)">
                                    <rect id="Rectangle" fill="url(#linearGradient-3)" x="58" y="55" width="282" height="144"></rect>
                                    <circle id="Oval" fill="#FFFFFF" fill-rule="nonzero" cx="58" cy="199" r="14"></circle>
                                    <circle id="Oval-Copy" fill="#FFFFFF" fill-rule="nonzero" cx="58" cy="59" r="14"></circle>
                                    <circle id="Oval-Copy-2" fill="url(#linearGradient-3)" transform="translate(55.528391, 13.672619) rotate(45.000000) translate(-55.528391, -13.672619) " cx="55.5283912" cy="13.6726189" r="9"></circle>
                                    <circle id="Oval-Copy-3" fill="url(#linearGradient-3)" transform="translate(51.992857, 203.177236) rotate(45.000000) translate(-51.992857, -203.177236) " cx="51.9928573" cy="203.177236" r="4.5"></circle>
                                    <g id="Group-30" transform="translate(56.942605, 132.466558) rotate(45.000000) translate(-56.942605, -132.466558) translate(16.942605, 92.466558)" fill="#FFFFFF" fill-rule="nonzero">
                                        <rect id="Rectangle" x="0" y="0" width="10" height="10"></rect>
                                        <rect id="Rectangle-Copy-5" x="40" y="40" width="10" height="10"></rect>
                                        <rect id="Rectangle-Copy-3" x="20" y="20" width="10" height="10"></rect>
                                        <rect id="Rectangle-Copy-6" x="60" y="60" width="10" height="10"></rect>
                                        <rect id="Rectangle-Copy-2" x="10" y="10" width="10" height="10"></rect>
                                        <rect id="Rectangle-Copy-7" x="50" y="50" width="10" height="10"></rect>
                                        <rect id="Rectangle-Copy-4" x="30" y="30" width="10" height="10"></rect>
                                        <rect id="Rectangle-Copy-8" x="70" y="70" width="10" height="10"></rect>
                                    </g>
                                    <circle id="Oval" fill="#FFFFFF" fill-rule="nonzero" transform="translate(160.816234, 127.000000) rotate(45.000000) translate(-160.816234, -127.000000) " cx="160.816234" cy="127" r="27"></circle>
                                </g>
                                <rect id="Rectangle" fill="url(#linearGradient-3)" transform="translate(137.606274, 201.096805) rotate(-15.000000) translate(-137.606274, -201.096805) " x="125.606274" y="189.096805" width="24" height="24"></rect>
                                <rect id="Rectangle-Copy-9" fill="url(#linearGradient-3)" transform="translate(97.921332, 71.738693) rotate(-15.000000) translate(-97.921332, -71.738693) " x="91.9213316" y="65.7386933" width="12" height="12"></rect>
                            </g>
                        </g>
                    </g>
                </g>
            </g>
        </g>
    </g>
</svg>