<?xml version="1.0" encoding="UTF-8"?>
<svg width="198px" height="218px" viewBox="0 0 198 218" version="1.1" xmlns="http://www.w3.org/2000/svg" xmlns:xlink="http://www.w3.org/1999/xlink">
    <!-- Generator: Sketch 52.5 (67469) - http://www.bohemiancoding.com/sketch -->
    <title>Group 14</title>
    <desc>Created with Sketch.</desc>
    <g id="Visual-playground" stroke="none" stroke-width="1" fill="none" fill-rule="evenodd">
        <g id="Home-Full-HD" transform="translate(-749.000000, -3978.000000)" fill="#6FADF5">
            <g id="Group-16" transform="translate(488.000000, 3874.922977)">
                <g id="Group-6" transform="translate(0.000000, 1.000000)">
                    <g id="Group-2" transform="translate(0.000000, 103.000000)">
                        <g id="Group-11" transform="translate(212.200026, -134.185727)">
                            <g id="Group-14">
                                <polygon id="Rectangle-2" transform="translate(146.500000, 147.000000) rotate(-45.000000) translate(-146.500000, -147.000000) " points="92 -5 201 -5 201 299 92 299"></polygon>
                                <polygon id="Rectangle-2-Copy" transform="translate(185.865991, 245.251744) rotate(-315.000000) translate(-185.865991, -245.251744) " points="131.365991 149.751744 240.365991 149.751744 240.365991 340.751744 131.365991 340.751744"></polygon>
                                <polygon id="Rectangle-2-Copy-2" transform="translate(52.110666, 217.562436) rotate(-315.000000) translate(-52.110666, -217.562436) " points="32.5554369 202.257129 71.6658943 197.95907 67.4641109 237.165803"></polygon>
                                <polygon id="Rectangle-2-Copy-4" transform="translate(218.738610, 332.124363) rotate(-315.000000) translate(-218.738610, -332.124363) " points="212.425809 327.183518 225.05141 325.796023 223.694995 338.452704"></polygon>
                            </g>
                        </g>
                    </g>
                </g>
            </g>
        </g>
    </g>
</svg>